<?xml version="1.0" encoding="UTF-8"?>
<svg width="12px" height="12px" viewBox="0 0 12 12" version="1.1" xmlns="http://www.w3.org/2000/svg" xmlns:xlink="http://www.w3.org/1999/xlink">
    <!-- Generator: Sketch 52.6 (67491) - http://www.bohemiancoding.com/sketch -->
    <title>user(1)</title>
    <desc>Created with Sketch.</desc>
    <g id="Page-1" stroke="none" stroke-width="1" fill="none" fill-rule="evenodd">
        <g id="Главная" transform="translate(-875.000000, -128.000000)" fill="#FFFFFF" fill-rule="nonzero">
            <g id="Меню" transform="translate(860.000000, 0.000000)">
                <g id="аккаунт" transform="translate(15.000000, 127.000000)">
                    <g id="user(1)" transform="translate(0.000000, 1.000000)">
                        <path d="M6.00081219,7.10542736e-16 C2.68669176,7.10542736e-16 0,2.68632813 0,6 C0,9.31367188 2.68669176,12 6.00081219,12 C6.18159838,12 6.36170088,11.9918945 6.54092434,11.9757813 C6.70754846,11.9608399 6.87270754,11.9379883 7.0365969,11.909375 L7.0995937,11.8982422 C10.1465881,11.3296875 12.2592764,8.53447265 11.9742769,5.44833985 C11.6892774,2.36220703 9.10045046,0.0009765625 6.00081219,7.10542736e-16 Z M5.51871569,11.5788086 L5.50455362,11.5788086 C5.34896616,11.5650391 5.19455071,11.5442383 5.04150265,11.5175781 C5.03271241,11.5160156 5.02392217,11.5150391 5.01532725,11.5133789 C4.8656976,11.4866211 4.71763071,11.453418 4.57102882,11.4146485 L4.53557482,11.4055664 C4.39258672,11.3667969 4.25116133,11.3217774 4.11178699,11.2717774 C4.09733191,11.2666016 4.08277914,11.2620117 4.06832408,11.2566406 C3.93168449,11.2064453 3.79748662,11.1501953 3.66533984,11.0893555 C3.64893137,11.0820312 3.6325229,11.075 3.61611443,11.0671875 C3.48650703,11.0072265 3.35943906,10.9396484 3.23481282,10.8685547 C3.21723231,10.8585938 3.19945648,10.8486328 3.18187595,10.8387695 C3.0592031,10.7671875 2.93936268,10.6904297 2.82176864,10.609375 C2.80399278,10.5969726 2.7860216,10.5849609 2.76834343,10.5725586 C2.65280045,10.490625 2.54018755,10.4036133 2.43050473,10.3125976 L2.40032487,10.2862305 L2.40032487,8.6 C2.40178992,7.38554687 3.38600516,6.40146485 4.60062268,6.4 L7.4010017,6.4 C8.61561921,6.40146485 9.59983445,7.38554687 9.6012995,8.6 L9.6012995,10.2864258 L9.5747334,10.3085937 C9.46290187,10.4019531 9.34814023,10.4902344 9.23025318,10.5736328 C9.21462606,10.5845703 9.19880362,10.5950195 9.18327417,10.6057617 C9.06431277,10.6883789 8.94242127,10.7661133 8.81759968,10.8391602 C8.80197256,10.8482422 8.78595477,10.856836 8.77042532,10.8658203 C8.64394337,10.937793 8.51531266,11.0057617 8.38414256,11.0669922 C8.36910147,11.0740234 8.3539627,11.0805664 8.33872626,11.0870117 C8.20550511,11.1484375 8.07013524,11.2049805 7.93251893,11.2555664 C7.91884523,11.2606445 7.90507382,11.265039 7.89247446,11.2698242 C7.75241646,11.3200195 7.61040504,11.3654297 7.46663558,11.4043945 L7.43215826,11.4129883 C7.28536104,11.4517578 7.13719647,11.4851563 6.98737149,11.5120117 C6.97877657,11.5135742 6.97018166,11.5146485 6.96158675,11.5160156 C6.80834336,11.5427735 6.65373258,11.5635742 6.49804746,11.5774414 L6.48388537,11.5774414 C6.32390279,11.591211 6.16382252,11.5986328 6.00178887,11.5986328 C5.83975524,11.5986328 5.67840527,11.5925781 5.51871569,11.5788086 Z M10.0013536,9.915625 L10.0013536,8.6 C9.99969327,7.1647461 8.83644988,6.00166015 7.4010017,6 L4.60062268,6 C3.16517449,6.00166015 2.0019311,7.1647461 2.00027073,8.6 L2.00027073,9.9154297 C-0.15412241,7.71689452 -0.130095733,4.1919922 2.05398895,2.02294922 C4.23807361,-0.1459961 7.76355077,-0.1459961 9.94763542,2.02294922 C12.1317201,4.1919922 12.1557468,7.71689452 10.0013536,9.9154297 L10.0013536,9.915625 Z" id="Shape"></path>
                        <path d="M6.31578947,1.89473684 C5.26933593,1.89473684 4.42105263,2.74302014 4.42105263,3.78947368 C4.42105263,4.83592723 5.26933593,5.68421053 6.31578947,5.68421053 C7.36224302,5.68421053 8.21052632,4.83592723 8.21052632,3.78947368 C8.20941612,2.74348274 7.36178042,1.89584704 6.31578947,1.89473684 Z M6.31578947,5.30526316 C5.47860815,5.30526316 4.8,4.62665501 4.8,3.78947368 C4.8,2.95229236 5.47860815,2.27368421 6.31578947,2.27368421 C7.1529708,2.27368421 7.83157895,2.95229236 7.83157895,3.78947368 C7.83065379,4.62619243 7.15250822,5.30433801 6.31578947,5.30526316 Z" id="Shape"></path>
                    </g>
                </g>
            </g>
        </g>
    </g>
</svg>