<svg width="21" height="21" viewBox="0 0 21 21" fill="none" xmlns="http://www.w3.org/2000/svg">
<path d="M9.54545 17.5C14.8173 17.5 19.0909 13.5825 19.0909 8.75C19.0909 3.91751 14.8173 0 9.54545 0C4.27365 0 0 3.91751 0 8.75C0 13.5825 4.27365 17.5 9.54545 17.5Z" fill="#2DA1E1"/>
<path d="M16.2765 8.92676L12.5719 20.5044L4.37502 11.4009L16.2765 8.92676Z" fill="#2DA1E1"/>
<path d="M8.78955 6.07568H10.3525V12H8.78955V6.07568ZM9.57373 5.24854C9.29443 5.24854 9.07064 5.17513 8.90234 5.02832C8.73405 4.88151 8.6499 4.69173 8.6499 4.45898C8.6499 4.22266 8.73405 4.03288 8.90234 3.88965C9.07064 3.74284 9.29443 3.66943 9.57373 3.66943C9.85303 3.66943 10.0768 3.74284 10.2451 3.88965C10.4134 4.03288 10.4976 4.22266 10.4976 4.45898C10.4976 4.69173 10.4134 4.88151 10.2451 5.02832C10.0732 5.17513 9.84945 5.24854 9.57373 5.24854Z" fill="white"/>
</svg>
