<svg width="105" height="25" viewBox="0 0 105 25" fill="none" xmlns="http://www.w3.org/2000/svg">
<path d="M43.3423 17.0762C43.0164 17.0762 42.7858 17.0465 42.6504 16.9873V15.5845C42.8239 15.6226 43.0037 15.6416 43.1899 15.6416C43.7993 15.6416 44.2563 15.3898 44.561 14.8862L41.4888 7.84033H43.2217L45.3735 13.1851H45.4814L47.5635 7.84033H49.2773L46.4717 14.3784C46.0654 15.3179 45.6592 15.9823 45.2529 16.3716C44.7578 16.8413 44.1209 17.0762 43.3423 17.0762ZM54.5903 12.3916C54.5142 12.0404 54.3491 11.7632 54.0952 11.5601C53.8244 11.3442 53.4795 11.2363 53.0605 11.2363C52.5189 11.2363 52.0978 11.4352 51.7974 11.833C51.4927 12.2308 51.3403 12.7894 51.3403 13.5088C51.3403 14.2367 51.4927 14.8037 51.7974 15.21C52.1021 15.6162 52.5231 15.8193 53.0605 15.8193C53.9111 15.8193 54.4211 15.4491 54.5903 14.7085H56.0884C55.9995 15.4491 55.6948 16.0352 55.1743 16.4668C54.6326 16.9154 53.9302 17.1396 53.0669 17.1396C52.0216 17.1396 51.207 16.8201 50.623 16.1812C50.0391 15.5422 49.7471 14.6514 49.7471 13.5088C49.7471 12.3789 50.0391 11.4987 50.623 10.8682C51.207 10.2334 52.0195 9.91602 53.0605 9.91602C53.9323 9.91602 54.639 10.1466 55.1807 10.6079C55.7012 11.048 56.0037 11.6426 56.0884 12.3916H54.5903ZM62.2773 11.3125H59.2939V17H57.7197V10.0557H63.8516V17H62.2773V11.3125ZM68.8218 11.1665C68.3521 11.1665 67.9648 11.321 67.6602 11.6299C67.3555 11.9388 67.1862 12.3472 67.1523 12.855H70.4214C70.4045 12.3387 70.2521 11.9282 69.9644 11.6235C69.6766 11.3188 69.2957 11.1665 68.8218 11.1665ZM71.9258 15.0894C71.7777 15.7241 71.4307 16.2235 70.8848 16.5874C70.3346 16.9556 69.6533 17.1396 68.8408 17.1396C67.821 17.1396 67.019 16.8201 66.4351 16.1812C65.8553 15.5464 65.5654 14.6704 65.5654 13.5532C65.5654 12.436 65.8574 11.5495 66.4414 10.8936C67.0254 10.2419 67.821 9.91602 68.8281 9.91602C69.8184 9.91602 70.5949 10.2271 71.1577 10.8491C71.7163 11.467 71.9956 12.3239 71.9956 13.4199V13.9277H67.146V14.0103C67.1672 14.59 67.3322 15.047 67.6411 15.3813C67.9543 15.7199 68.369 15.8892 68.8853 15.8892C69.6808 15.8892 70.1971 15.6226 70.4341 15.0894H71.9258ZM73.7158 10.0557H75.29V15.7432H77.5054V10.0557H79.0796V15.7432H81.3013V10.0557H82.8691V17H73.7158V10.0557ZM84.8877 10.0557H86.4619V12.7979H89.5088V10.0557H91.083V17H89.5088V14.0547H86.4619V17H84.8877V10.0557ZM96.1357 15.8193C96.6859 15.8193 97.109 15.6183 97.4053 15.2163C97.7057 14.8185 97.856 14.2557 97.856 13.5278C97.856 12.8042 97.7057 12.2414 97.4053 11.8394C97.1048 11.4373 96.6816 11.2363 96.1357 11.2363C95.5856 11.2363 95.1603 11.4373 94.8599 11.8394C94.5594 12.2414 94.4092 12.8042 94.4092 13.5278C94.4092 14.2557 94.5594 14.8185 94.8599 15.2163C95.1603 15.6183 95.5856 15.8193 96.1357 15.8193ZM96.1357 17.1396C95.0947 17.1396 94.278 16.8201 93.6855 16.1812C93.0931 15.5379 92.7969 14.6535 92.7969 13.5278C92.7969 12.4106 93.0952 11.5283 93.6919 10.8809C94.2886 10.2376 95.1032 9.91602 96.1357 9.91602C97.1725 9.91602 97.9871 10.2376 98.5796 10.8809C99.1763 11.5241 99.4746 12.4064 99.4746 13.5278C99.4746 14.6535 99.1784 15.5379 98.5859 16.1812C97.9893 16.8201 97.1725 17.1396 96.1357 17.1396ZM103.264 7.83398L103.118 13.9722H101.652L101.506 7.83398H103.264ZM101.334 16.1558C101.334 15.8468 101.43 15.6014 101.62 15.4194C101.811 15.2332 102.067 15.1401 102.388 15.1401C102.71 15.1401 102.966 15.2332 103.156 15.4194C103.347 15.6014 103.442 15.8468 103.442 16.1558C103.442 16.4604 103.347 16.7038 103.156 16.8857C102.966 17.0719 102.71 17.165 102.388 17.165C102.067 17.165 101.811 17.0719 101.62 16.8857C101.43 16.7038 101.334 16.4604 101.334 16.1558Z" fill="white"/>
<path d="M12.5 25C19.4036 25 25 19.4036 25 12.5C25 5.59644 19.4036 0 12.5 0C5.59644 0 0 5.59644 0 12.5C0 19.4036 5.59644 25 12.5 25Z" fill="url(#paint0_linear)"/>
<path fill-rule="evenodd" clip-rule="evenodd" d="M10.7227 15.1194L7.93068 12.2985L7 13.2388L10.7227 17L18.7 8.9403L17.7693 8L10.7227 15.1194Z" fill="white"/>
<defs>
<linearGradient id="paint0_linear" x1="-4.16211" y1="14.6445" x2="15.0254" y2="34.5938" gradientUnits="userSpaceOnUse">
<stop stop-color="#2FB716"/>
<stop offset="1" stop-color="#179808"/>
</linearGradient>
</defs>
</svg>
