<svg width="22" height="21" viewBox="0 0 22 21" fill="none" xmlns="http://www.w3.org/2000/svg">
<path d="M11.1818 3L19.3636 18H3L11.1818 3Z" fill="#FFA600" stroke="#FFA600" stroke-width="5" stroke-linejoin="round"/>
<path d="M12.3262 6.84033L12.1548 12.9849H10.46L10.2949 6.84033H12.3262ZM10.1553 15.1113C10.1553 14.777 10.259 14.5125 10.4663 14.3179C10.6737 14.1232 10.9551 14.0259 11.3105 14.0259C11.6702 14.0259 11.9517 14.1232 12.1548 14.3179C12.3621 14.5083 12.4658 14.7728 12.4658 15.1113C12.4658 15.4456 12.3621 15.708 12.1548 15.8984C11.9517 16.0931 11.6702 16.1904 11.3105 16.1904C10.9551 16.1904 10.6737 16.0931 10.4663 15.8984C10.259 15.708 10.1553 15.4456 10.1553 15.1113Z" fill="white"/>
</svg>
