<svg width="24px" height="24px" viewBox="0 0 24 24" version="1.1" xmlns="http://www.w3.org/2000/svg" xmlns:xlink="http://www.w3.org/1999/xlink">
    <g id="Symbols" stroke="none" stroke-width="1" fill="none" fill-rule="evenodd">
        <g id="sport" transform="translate(-24.000000, -279.000000)" fill="#404248" fill-rule="nonzero">
            <g id="Ios-Americanfootball" transform="translate(24.000000, 279.000000)">
                <path d="M19.0983406,4.90384615 C25.5618702,11.3653846 23.7728576,23.7692308 23.7728576,23.7692308 C23.7728576,23.7692308 22.2723953,24 20.021702,24 C15.8088657,24 9.1144957,23.3076923 4.90165942,19.0961538 C-1.56187022,12.6346154 0.227142446,0.230769231 0.227142446,0.230769231 C0.227142446,0.230769231 1.72760468,0 3.97829804,0 C8.19113432,0 14.8855043,0.692307692 19.0983406,4.90384615 Z M1.15050382,8.48076923 L1.32363408,9.51923077 L9.5184663,1.32692308 L8.47968475,1.15384615 L1.15050382,8.48076923 Z M12.6348109,16.5576923 L13.327332,17.25 L14.9432144,15.5769231 L16.2705464,16.8461538 L14.5969539,18.5192308 L15.2894749,19.1538462 L19.1560507,15.2884615 L18.5212397,14.5961538 L16.8476472,16.2692308 L15.5780253,14.9423077 L17.2516178,13.3269231 L16.5590968,12.6346154 L14.9432144,14.3076923 L13.6158824,12.9807692 L15.2894749,11.3653846 L14.5969539,10.6730769 L12.9810715,12.3461538 L11.6537395,11.0192308 L13.327332,9.40384615 L12.6348109,8.71153846 L11.0189285,10.3846154 L9.69159656,9.05769231 L11.3651891,7.44230769 L10.672668,6.75 L9.05678561,8.42307692 L7.72945363,7.15384615 L9.40304613,5.48076923 L8.7105251,4.84615385 L4.84394933,8.71153846 L5.47876028,9.40384615 L7.15235277,7.73076923 L8.42197466,9.05769231 L6.74838217,10.6730769 L7.4409032,11.3653846 L9.05678561,9.69230769 L10.3841176,11.0192308 L8.7105251,12.6346154 L9.40304613,13.3269231 L11.0189285,11.6538462 L12.3462605,12.9807692 L10.672668,14.5961538 L11.3651891,15.2884615 L12.9810715,13.6153846 L14.3084034,14.9423077 L12.6348109,16.5576923 Z M15.5203152,22.8461538 L22.8494962,15.5192308 L22.6763659,14.4807692 L14.4815337,22.6730769 L15.5203152,22.8461538 Z" id="Shape"></path>
            </g>
        </g>
    </g>
</svg>