<?xml version="1.0" encoding="UTF-8"?>
<svg width="6px" height="8px" viewBox="0 0 6 8" version="1.1" xmlns="http://www.w3.org/2000/svg" xmlns:xlink="http://www.w3.org/1999/xlink">
    <!-- Generator: Sketch 52.6 (67491) - http://www.bohemiancoding.com/sketch -->
    <title>Path</title>
    <desc>Created with Sketch.</desc>
    <g id="Page-1" stroke="none" stroke-width="1" fill="none" fill-rule="evenodd">
        <g id="Главная" transform="translate(-586.000000, -572.000000)" fill="#4ABB3B">
            <g id="наполнение" transform="translate(71.000000, 83.000000)">
                <g id="середина" transform="translate(245.000000, 0.000000)">
                    <g id="букмекеры" transform="translate(17.000000, 395.000000)">
                        <g id="буки" transform="translate(0.000000, 63.000000)">
                            <g id="Group-20" transform="translate(3.000000, 27.000000)">
                                <g id="Group-21" transform="translate(221.317757, 2.000000)">
                                    <path d="M35.3094126,5.7874499 L33.1668145,3.86372919 C33.0360892,3.74635818 32.8240792,3.74635818 32.6933539,3.86372919 C32.5626019,3.98112425 32.5626019,4.17142832 32.6933539,4.28882338 L34.2644407,5.69941563 L28.5422576,5.69941563 C28.3573782,5.69941563 28.2074766,5.83400394 28.2074766,5.99999699 C28.2074766,6.165966 28.3573782,6.30057836 28.5422576,6.30057836 L34.2644407,6.30057836 L32.6934075,7.71117061 C32.5626554,7.82856567 32.5626554,8.01886974 32.6934075,8.1362648 C32.7587567,8.19491423 32.8444606,8.22429907 32.9301378,8.22429907 C33.0158149,8.22429907 33.1014921,8.19491423 33.1668681,8.1362648 L35.3094126,6.21254409 C35.4401646,6.09514903 35.4401646,5.90484496 35.3094126,5.7874499 Z" id="Path" transform="translate(31.807477, 6.000000) scale(1, -1) rotate(90.000000) translate(-31.807477, -6.000000) "></path>
                                </g>
                            </g>
                        </g>
                    </g>
                </g>
            </g>
        </g>
    </g>
</svg>