<svg width="25px" height="25px" viewBox="0 0 25 25" version="1.1" xmlns="http://www.w3.org/2000/svg" xmlns:xlink="http://www.w3.org/1999/xlink">
    <g id="Symbols" stroke="none" stroke-width="1" fill="none" fill-rule="evenodd">
        <g id="sport" transform="translate(-22.000000, -129.000000)" fill="#404248" fill-rule="nonzero">
            <g id="Ios-Basketball" transform="translate(22.000000, 129.000000)">
                <path d="M12.5,0 C19.4110577,0 25,5.58894231 25,12.5 C25,19.4110577 19.4110577,25 12.5,25 C5.58894231,25 0,19.4110577 0,12.5 C0,5.58894231 5.58894231,0 12.5,0 Z M20.0120192,21.1538462 C18.6899038,18.0889423 16.8269231,15.3245192 14.6634615,12.8605769 C15.3245192,12.1394231 15.9254808,11.3581731 16.5264423,10.5769231 C18.5697115,12.1995192 21.1538462,13.28125 23.9182692,13.4615385 C23.9182692,13.1610577 23.9783654,12.8004808 23.9783654,12.5 C22.65625,12.3798077 21.3341346,12.0793269 20.0721154,11.5384615 C18.9903846,11.0576923 18.0288462,10.5168269 17.1274038,9.79567308 C18.3894231,7.99278846 19.4110577,6.12980769 20.2524038,4.08653846 C20.0120192,3.84615385 19.7716346,3.60576923 19.53125,3.42548077 C19.53125,3.48557692 19.4711538,3.48557692 19.4711538,3.54567308 C18.6298077,5.52884615 17.5480769,7.39182692 16.3461538,9.13461538 C16.2259615,9.07451923 16.2259615,9.01442308 16.1057692,8.89423077 C14.9639423,7.75240385 14.0024038,6.43028846 13.4014423,4.92788462 C12.8605769,3.66586538 12.6201923,2.34375 12.5,1.02163462 C12.1995192,1.02163462 11.8389423,1.08173077 11.5384615,1.08173077 C11.7788462,4.56730769 13.4014423,7.69230769 15.8052885,9.91586538 C15.2644231,10.6971154 14.6634615,11.4182692 14.0024038,12.1394231 C11.1177885,9.13461538 7.69230769,6.67067308 3.84615385,4.98798077 C3.60576923,5.22836538 3.42548077,5.52884615 3.24519231,5.76923077 C6.79086538,7.33173077 9.97596154,9.49519231 12.7403846,12.2596154 L13.3413462,12.8605769 L12.8605769,13.3413462 C12.0793269,14.1225962 11.2980769,14.84375 10.4567308,15.5048077 C8.11298077,12.9206731 4.86778846,11.2379808 1.14182692,11.0576923 C1.08173077,11.3581731 1.08173077,11.71875 1.08173077,12.0192308 C2.58413462,12.0793269 4.02644231,12.4399038 5.34855769,12.9807692 C6.85096154,13.5817308 8.17307692,14.5432692 9.31490385,15.6850962 L9.73557692,16.1057692 C7.87259615,17.5480769 5.76923077,18.75 3.60576923,19.7115385 C3.84615385,19.9519231 4.02644231,20.2524038 4.26682692,20.4927885 C6.43028846,19.53125 8.47355769,18.2692308 10.3365385,16.8269231 C10.9975962,17.6682692 11.5985577,18.6298077 12.0192308,19.6514423 C12.6201923,21.0336538 12.9206731,22.4158654 12.9807692,23.9182692 C13.28125,23.9182692 13.6418269,23.9182692 13.9423077,23.8581731 C13.8221154,20.9735577 12.8004808,18.3293269 11.1177885,16.2259615 C12.1394231,15.3846154 13.1009615,14.5432692 14.0024038,13.5817308 C16.1658654,16.0456731 17.9086538,18.75 19.2307692,21.7548077 C19.4711538,21.5745192 19.7716346,21.3942308 20.0120192,21.1538462 Z" id="Shape"></path>
            </g>
        </g>
    </g>
</svg>