<?xml version="1.0" encoding="UTF-8"?>
<svg width="258px" height="168px" viewBox="0 0 258 168" version="1.1" xmlns="http://www.w3.org/2000/svg" xmlns:xlink="http://www.w3.org/1999/xlink">
    <!-- Generator: Sketch 52.6 (67491) - http://www.bohemiancoding.com/sketch -->
    <title>карточка</title>
    <desc>Created with Sketch.</desc>
    <defs>
        <linearGradient x1="26.5911207%" y1="2.5650289%" x2="71.2783604%" y2="100%" id="linearGradient-1">
            <stop stop-color="#F7C43B" offset="0%"></stop>
            <stop stop-color="#ECAC2C" offset="100%"></stop>
        </linearGradient>
        <rect id="path-2" x="0" y="0" width="258" height="167.675676" rx="8"></rect>
        <linearGradient x1="17.2993467%" y1="0%" x2="159.917943%" y2="199.17352%" id="linearGradient-4">
            <stop stop-color="#FFFFFF" offset="0%"></stop>
            <stop stop-color="#B2B3B6" stop-opacity="0.632564126" offset="100%"></stop>
            <stop stop-color="#2D3039" stop-opacity="0" offset="100%"></stop>
        </linearGradient>
    </defs>
    <g id="Page-1" stroke="none" stroke-width="1" fill="none" fill-rule="evenodd">
        <g id="Подписка" transform="translate(-723.000000, -259.000000)">
            <g id="подписка" transform="translate(98.000000, 210.000000)">
                <g id="блоки" transform="translate(0.000000, 37.000000)">
                    <g id="профессионал" transform="translate(612.000000, 0.000000)">
                        <g id="карточка" transform="translate(13.000000, 12.000000)">
                            <g id="Group-5">
                                <mask id="mask-3" fill="white">
                                    <use xlink:href="#path-2"></use>
                                </mask>
                                <use id="Rectangle" fill="url(#linearGradient-1)" fill-rule="nonzero" xlink:href="#path-2"></use>
                                <g id="start" opacity="0.401134673" mask="url(#mask-3)" fill="#FFFFFF">
                                    <g transform="translate(203.394342, 113.729407) rotate(35.000000) translate(-203.394342, -113.729407) translate(121.894342, 15.729407)">
                                        <path d="M81.0006866,63.0468245 C61.9997418,63.0468245 46.5417825,78.6842142 46.5417825,97.905715 C46.5417825,104.673234 48.4602053,110.994846 51.7725711,116.348028 C51.8733016,116.545698 51.994481,116.735323 52.1315653,116.916521 C58.2874837,126.450272 68.9281794,132.764605 81.0006866,132.764605 C100.001631,132.764605 115.459591,117.126833 115.459591,97.905715 C115.459591,78.6845973 100.001631,63.0468245 81.0006866,63.0468245 Z M56.1164773,108.188007 C54.8300812,105.013794 54.1151222,101.543458 54.1151222,97.905715 C54.1155009,82.9088377 66.1758901,70.7084559 81.0006866,70.7084559 C90.0721078,70.7084559 98.1021428,75.2813006 102.973558,82.2633453 L82.175749,103.302568 L74.2384921,95.2735616 C72.7593449,93.777628 70.362263,93.7780111 68.8827371,95.2735616 L56.1164773,108.188007 Z M81.0006866,125.102974 C72.5696232,125.102974 65.0360455,121.153403 60.102904,114.99077 L71.5608039,103.399871 L79.4980608,111.428877 C80.977208,112.924811 83.3742899,112.924428 84.8538158,111.428877 L106.557063,89.4737066 C107.415923,92.1299942 107.886251,94.9624993 107.886251,97.9053319 C107.885872,112.902209 95.8251043,125.102974 81.0006866,125.102974 Z" id="Shape" fill-rule="nonzero"></path>
                                        <path d="M140.031138,95.0246749 C139.43204,76.4096711 134.217098,58.1542597 124.856517,42.0125967 C114.890736,24.8275823 100.50665,10.5212121 83.2593999,0.640800231 C82.0848464,-0.0322928317 80.6399168,-0.0322928317 79.4653633,0.640800231 C62.2184942,10.5212121 47.8344086,24.8275823 37.8682459,42.0122158 C28.5076646,58.1538788 23.2927234,76.4092902 22.6936248,95.024294 C9.32507039,100.754918 0.516681825,113.94099 0.516681825,128.641236 L0.516681825,155.553149 C0.516681825,157.656994 2.22436059,159.362391 4.33016722,159.362391 L60.365903,159.362391 C61.1877091,170.820211 66.209688,181.794637 74.4311812,189.886229 L78.6858868,194.073728 C79.4279911,194.80396 80.395091,195.169266 81.3625722,195.169266 C82.3300535,195.169266 83.296772,194.80396 84.0392576,194.073728 L88.2939633,189.886229 C96.5154565,181.794637 101.537435,170.820591 102.359241,159.362772 L114.158547,159.362772 L114.158547,179.023032 C114.158547,181.126877 115.866225,182.832274 117.972032,182.832274 C120.077839,182.832274 121.785517,181.126877 121.785517,179.023032 L121.785517,159.362391 L158.394977,159.362391 C160.500784,159.362391 162.208463,157.656994 162.208463,155.553149 L162.208463,128.641617 C162.208463,113.94099 153.399693,100.754918 140.031138,95.0246749 Z M81.3625722,8.36289562 C93.352933,15.5696006 103.602819,24.9989982 111.708001,35.9429505 L51.0171435,35.9429505 C59.1223254,24.9989982 69.3722115,15.5696006 81.3625722,8.36289562 Z M8.14365262,151.743907 L8.14365262,128.641236 C8.14365262,118.167725 13.7914245,108.664809 22.6348971,103.559663 L22.6348971,147.934665 C22.6348971,149.270186 22.8675197,150.551615 23.2908166,151.743907 L8.14365262,151.743907 Z M82.9409738,184.459202 L81.3625722,186.01261 L79.7841706,184.459202 C73.0079884,177.790362 68.8215442,168.789885 68.0165174,159.362391 L94.7086271,159.362391 C93.903219,168.789885 89.7167747,177.790362 82.9409738,184.459202 Z M132.463277,147.934665 C132.463277,150.035082 130.752547,151.743907 128.649791,151.743907 L34.0753533,151.743907 C31.9725975,151.743907 30.2618679,150.035082 30.2618679,147.934665 L30.2618679,98.6385028 C30.2618679,84.8452375 32.9892727,71.404708 38.0520559,58.9888647 L55.3191364,58.9888647 C57.4249431,58.9888647 59.1326218,57.283467 59.1326218,55.1796226 C59.1326218,53.0757783 57.4249431,51.3703806 55.3191364,51.3703806 L41.5166074,51.3703806 C42.8570475,48.7069586 44.3103668,46.101818 45.8704636,43.5614345 L116.854681,43.5614345 C126.878427,59.8855602 132.463277,78.9005345 132.463277,98.6385028 L132.463277,147.934665 Z M154.581492,151.743907 L139.434328,151.743907 C139.857625,150.551615 140.090247,149.270186 140.090247,147.934665 L140.090247,103.560044 C148.93372,108.664809 154.581492,118.167725 154.581492,128.641617 L154.581492,151.743907 Z" id="Shape" fill-rule="nonzero"></path>
                                        <path d="M71.4276406,52.046586 C70.6884971,51.3079305 69.662682,50.883005 68.6169868,50.883005 C67.5712916,50.883005 66.5454765,51.3079305 65.8059354,52.046586 C65.0663943,52.7852415 64.6409594,53.8098281 64.6409594,54.8542711 C64.6409594,55.898714 65.0659967,56.9233006 65.8059354,57.6619561 C66.5458741,58.4006116 67.5712916,58.8255371 68.6169868,58.8255371 C69.662682,58.8255371 70.6884971,58.4006116 71.4276406,57.6619561 C72.1671817,56.9233006 72.5930142,55.898714 72.5930142,54.8542711 C72.5930142,53.8098281 72.1675793,52.7852415 71.4276406,52.046586 Z" id="Path" fill-rule="evenodd"></path>
                                        <path d="M44.494159,169.212613 C42.2985966,169.212613 40.5181316,170.92346 40.5181316,173.034028 L40.5181316,184.806277 C40.5181316,186.916844 42.2985966,188.627691 44.494159,188.627691 C46.6897213,188.627691 48.4701864,186.916844 48.4701864,184.806277 L48.4701864,173.034028 C48.4701864,170.92346 46.6897213,169.212613 44.494159,169.212613 Z" id="Path" fill-rule="evenodd"></path>
                                    </g>
                                </g>
                                <path d="M253.123505,2.63943672e-13 L253.613496,2.55795385e-13 C296.430883,9.5812042e-14 331.141233,34.7103503 331.141233,77.5277373 L331.141233,107.267267 C331.141233,139.541787 305.317138,165.883226 273.048966,166.523319 L217.382095,167.627564 C215.765428,167.659633 214.148206,167.650422 212.532009,167.599938 L178.06475,166.523319 C161.008188,165.99054 147.613014,151.731562 148.145793,134.674999 C148.202694,132.853347 148.420657,131.0403 148.797131,129.257067 L160.172397,75.3762519 C169.448037,31.4406553 208.21945,4.66207941e-13 253.123505,2.98427949e-13 Z" id="Rectangle" fill="url(#linearGradient-4)" fill-rule="nonzero" opacity="0.26734561" mask="url(#mask-3)"></path>
                            </g>
                        </g>
                    </g>
                </g>
            </g>
        </g>
    </g>
</svg>