<svg width="279px" height="191px" viewBox="0 0 279 191" version="1.1" xmlns="http://www.w3.org/2000/svg" xmlns:xlink="http://www.w3.org/1999/xlink">
    <defs>
        <linearGradient x1="28.2327874%" y1="6.14447927%" x2="70.5195814%" y2="98.3455767%" id="linearGradient-1">
            <stop stop-color="#ECECEC" offset="0%"></stop>
            <stop stop-color="#D6D6D6" offset="100%"></stop>
        </linearGradient>
        <rect id="path-2" x="0" y="0" width="257" height="168.208092" rx="8"></rect>
        <filter x="-8.8%" y="-6.8%" width="117.5%" height="127.3%" filterUnits="objectBoundingBox" id="filter-4">
            <feOffset dx="0" dy="12" in="SourceAlpha" result="shadowOffsetOuter1"></feOffset>
            <feGaussianBlur stdDeviation="5.5" in="shadowOffsetOuter1" result="shadowBlurOuter1"></feGaussianBlur>
            <feColorMatrix values="0 0 0 0 0   0 0 0 0 0   0 0 0 0 0  0 0 0 0.12 0" type="matrix" in="shadowBlurOuter1"></feColorMatrix>
        </filter>
        <radialGradient cx="17.2993467%" cy="0%" fx="17.2993467%" fy="0%" r="112.399506%" gradientTransform="translate(0.172993,0.000000),scale(0.889821,1.000000),rotate(29.284274),translate(-0.172993,-0.000000)" id="radialGradient-5">
            <stop stop-color="#ABABAB" offset="0%"></stop>
            <stop stop-color="#2D3039" stop-opacity="0" offset="100%"></stop>
        </radialGradient>
    </defs>
    <g id="Page-1" stroke="none" stroke-width="1" fill="none" fill-rule="evenodd">
        <g id="Подписка" transform="translate(-406.000000, -260.000000)">
            <g id="подписка" transform="translate(98.000000, 210.000000)">
                <g id="блоки" transform="translate(0.000000, 37.000000)">
                    <g id="Group-13" transform="translate(319.000000, 13.000000)">
                        <g id="карточка">
                            <g id="Group-5">
                                <mask id="mask-3" fill="white">
                                    <use xlink:href="#path-2"></use>
                                </mask>
                                <g id="Rectangle" fill-rule="nonzero">
                                    <use fill="black" fill-opacity="1" filter="url(#filter-4)" xlink:href="#path-2"></use>
                                    <use fill="url(#linearGradient-1)" xlink:href="#path-2"></use>
                                </g>
                                <g id="plane" opacity="0.450753348" mask="url(#mask-3)" fill="#FFFFFF">
                                    <g transform="translate(71.291096, 58.430179)">
                                        <path d="M183.156457,119.660765 L188.624433,114.161779 C192.065613,110.698694 192.065613,105.064763 188.624433,101.601678 C186.956336,99.9251402 184.739983,99.0010643 182.380733,99.0010643 C180.610567,99.0010643 178.91914,99.5217736 177.481427,100.49132 L176.329507,96.6014001 L182.248044,90.6462431 C185.690681,87.1831581 185.690681,81.5492273 182.248044,78.0876089 C179.079534,74.8988132 174.083991,74.6538596 170.623856,77.3366138 L163.610266,53.6509303 C166.411327,50.9373737 169.094281,48.2971563 171.622673,45.7537467 C178.908933,38.4227433 184.833303,30.6649043 188.305103,23.9059478 C194.171147,12.4826077 191.715662,6.37637149 188.622975,3.26531506 C185.531745,0.154259006 179.461563,-2.31434396 168.104213,3.5865416 C161.386622,7.07749569 153.67313,13.0370531 146.38687,20.3680569 C143.858478,22.9114661 141.232392,25.6088883 138.536315,28.4265869 L114.989023,21.3713391 C117.655937,17.8921197 117.41243,12.8669058 114.24392,9.67811009 C110.801283,6.21649175 105.200617,6.21502468 101.759438,9.67811009 L95.8394423,15.6332667 L91.9710317,14.4745048 C92.9348535,13.0267855 93.4524886,11.3253121 93.4524886,9.54463234 C93.4524886,7.17283678 92.5338685,4.94185319 90.8672297,3.26531506 C87.4260501,-0.197769903 81.8239263,-0.197769903 78.3827468,3.26531506 L72.916229,8.76430143 L45.0528818,0.415347357 C44.0598974,0.119056108 42.986716,0.391878758 42.2561942,1.12820586 L35.0836677,8.34333334 C33.8792551,9.55343288 34.0381908,11.62307 35.4117466,12.6336865 L105.713878,64.3980819 C89.8625799,82.3764954 74.5930748,100.376911 63.8131426,113.237703 L43.1339868,105.236377 C42.094342,104.834478 40.9176338,105.085299 40.1302453,105.877364 L31.6293652,114.428734 C30.5299376,115.536159 30.5299376,117.33004 31.6293652,118.435998 L74.1323071,161.191385 C75.2171535,162.284141 77.031063,162.284141 78.1173679,161.191385 L86.6167896,152.641481 C87.4041781,151.849415 87.654976,150.664251 87.253991,149.618432 L79.3013669,128.817919 C92.0862238,117.97396 109.978899,102.613762 127.852619,86.6668489 L133.437245,94.3440141 C134.428772,95.7066596 136.439528,95.8826741 137.655606,94.7209784 C138.669004,93.7528987 138.808984,92.1291649 137.985143,90.9968054 L132.081187,82.882537 C141.427781,74.4910461 150.657724,66.0247491 159.031747,58.0468925 L185.576948,147.689606 L181.915591,151.371243 L145.431797,101.230581 C144.513177,99.967677 142.750302,99.693388 141.494854,100.617464 C140.237949,101.543007 139.965279,103.316353 140.885357,104.579257 L179.311376,157.388005 C180.316026,158.769719 182.373443,158.929598 183.576397,157.718032 L190.748924,150.502905 C191.480903,149.768044 191.752115,148.687022 191.457573,147.689606 L183.156457,119.660765 Z M105.744499,13.6868401 C106.975157,12.4488715 109.029659,12.4488715 110.260318,13.6868401 C111.505558,14.9394763 111.505558,16.9768444 110.260318,18.2294806 L108.939255,19.5583902 L101.979615,17.4726183 L105.744499,13.6868401 Z M82.3678079,7.2740454 C83.6115901,6.02140874 85.6383863,6.02140874 86.8836269,7.2740454 C88.1288671,8.52668168 88.1288671,10.5640493 86.8836269,11.816686 L86.0145833,12.6894246 L79.0564016,10.6051198 L82.3678079,7.2740454 Z M41.391525,10.0125373 L45.0528818,6.33090098 L134.166308,33.0322994 C126.235556,41.4575264 117.819248,50.7422907 109.475845,60.1443983 L41.391525,10.0125373 Z M42.8204894,111.188601 L59.9753525,117.825814 C55.6724199,122.980105 52.3726789,126.9683 50.4260794,129.328361 L37.6062275,116.432366 L42.8204894,111.188601 Z M54.4286377,133.354693 C64.2505806,121.434111 116.16719,58.7832196 150.371931,24.3753198 C157.158054,17.5474246 164.565338,11.8064184 170.69093,8.62348984 C175.289862,6.23262613 181.443158,4.05884734 184.639372,7.2740454 C187.835586,10.4892435 185.673184,16.6790864 183.297895,21.3053338 C180.13376,27.4673081 174.425193,34.9171212 167.637612,41.7450168 C133.435787,76.1499828 71.1533537,128.376416 59.3031561,138.258163 L54.4286377,133.354693 Z M81.3383701,149.935258 L76.1255663,155.179023 L63.3057144,142.283028 C65.6503825,140.326333 69.6164877,137.006994 74.7403459,132.678504 L81.3383701,149.935258 Z M180.123553,105.610408 C181.368793,104.357772 183.394132,104.357772 184.639372,105.610408 C185.884612,106.863045 185.884612,108.900413 184.639372,110.153049 L181.327965,113.484123 L179.254509,106.484614 L180.123553,105.610408 Z M173.748622,82.0948722 C174.992404,80.8422359 177.019201,80.8437026 178.264441,82.0948722 C179.4951,83.3328408 179.4951,85.3995446 178.264441,86.6375128 L174.499557,90.4247581 L172.426101,83.4237818 L173.748622,82.0948722 Z" id="Shape" fill-rule="nonzero"></path>
                                        <path d="M29.0932433,19.4280567 C27.9832209,18.3125421 26.1836616,18.3125421 25.0751097,19.4280567 L0.832516797,43.8243864 C-0.277505599,44.9399006 -0.277505599,46.7507622 0.832516797,47.8662764 C1.92636659,48.9669962 3.75533011,48.9669962 4.85065041,47.8662764 L29.0932433,23.4714264 C30.2017956,22.3544329 30.2017956,20.5450506 29.0932433,19.4280567 Z" id="Path" fill-rule="evenodd"></path>
                                        <path d="M41.402101,31.8352767 C40.2761352,30.7025094 38.4522202,30.7025094 37.3277457,31.8352767 L21.9579411,47.2979294 C20.908034,48.3526782 20.8394323,50.0960902 21.8043328,51.2303582 C22.8825756,52.4966573 24.8600992,52.576176 26.0322968,51.3968976 L41.402101,35.9357456 C42.5280668,34.8029779 42.5280668,32.9665441 41.402101,31.8352767 Z" id="Path" fill-rule="evenodd"></path>
                                        <path d="M42.1751508,55.8563512 C43.2405629,56.9273069 45.0181569,56.9273069 46.083569,55.8563512 L56.4001917,45.4721116 C57.4784749,44.3853219 57.4784749,42.6248668 56.4001917,41.538077 C55.3204789,40.452727 53.5714866,40.452727 52.4917734,41.538077 L42.1751508,51.9223166 C41.0968676,53.009106 41.0968676,54.7695615 42.1751508,55.8563512 Z" id="Path" fill-rule="evenodd"></path>
                                    </g>
                                </g>
                                <path d="M248.349521,-2.08340939e-14 L248.427064,-1.42108547e-14 C291.078492,-1.73574107e-13 325.654306,34.5758141 325.654306,77.2272422 L325.654306,108.017412 C325.654306,140.168217 299.931595,166.409925 267.787203,167.052077 L212.362657,168.159297 C210.734555,168.191822 209.105886,168.18248 207.478265,168.131279 L173.171143,167.052077 C156.152333,166.516714 142.789858,152.286245 143.325221,135.267435 C143.381866,133.466712 143.596243,131.674421 143.965889,129.911136 L155.37062,75.5083595 C164.594211,31.5100424 203.394804,1.82180139e-13 248.349521,1.42108547e-14 Z" id="Rectangle" fill="url(#radialGradient-5)" fill-rule="nonzero" opacity="0.115815662" mask="url(#mask-3)"></path>
                            </g>
                        </g>
                    </g>
                </g>
            </g>
        </g>
    </g>
</svg>