<?xml version="1.0" encoding="UTF-8"?>
<svg width="261px" height="169px" viewBox="0 0 261 169" version="1.1" xmlns="http://www.w3.org/2000/svg" xmlns:xlink="http://www.w3.org/1999/xlink">
    <!-- Generator: Sketch 52.6 (67491) - http://www.bohemiancoding.com/sketch -->
    <title>карточка</title>
    <desc>Created with Sketch.</desc>
    <defs>
        <rect id="path-1" x="0" y="0.280701754" width="260.842105" height="168.719298" rx="8"></rect>
        <linearGradient x1="16.40049%" y1="-18.3100329%" x2="111.601477%" y2="239.891036%" id="linearGradient-3">
            <stop stop-color="#595E6B" offset="0%"></stop>
            <stop stop-color="#2D3039" stop-opacity="0" offset="100%"></stop>
        </linearGradient>
    </defs>
    <g id="Page-1" stroke="none" stroke-width="1" fill="none" fill-rule="evenodd">
        <g id="Подписка" transform="translate(-110.000000, -258.000000)">
            <g id="подписка" transform="translate(98.000000, 210.000000)">
                <g id="блоки" transform="translate(0.000000, 37.000000)">
                    <g id="начинающий">
                        <g id="карточка" transform="translate(12.000000, 11.000000)">
                            <mask id="mask-2" fill="white">
                                <use xlink:href="#path-1"></use>
                            </mask>
                            <use id="Rectangle" fill="#252831" fill-rule="nonzero" xlink:href="#path-1"></use>
                            <g id="hot-air-balloon" opacity="0.04" mask="url(#mask-2)" fill="#FFFFFF">
                                <g transform="translate(84.877193, 20.982456)">
                                    <path d="M0,57.7569495 L0,63.4431225 C3.94610796,63.4431225 7.14682431,65.9901803 7.14682431,69.130404 C7.14682431,70.7010713 8.74648441,71.9740447 10.7202365,71.9740447 C12.6925924,71.9740447 14.2922528,70.7010713 14.2922528,69.130404 C14.2922528,65.9901803 17.4929692,63.4431225 21.4390771,63.4431225 L21.4390771,57.7569495 C17.3338405,57.7547303 13.4268171,59.1609997 10.7202365,61.6147505 C8.01226006,59.1609997 4.10523629,57.7547303 0,57.7569495 Z" id="Path" fill-rule="evenodd"></path>
                                    <path d="M10.7195386,75.5283185 L10.7195386,81.2144918 C14.6667853,81.2144918 17.8658976,83.7615495 17.8658976,86.9017731 C17.8658976,88.4724401 19.4654536,89.7454138 21.4390771,89.7454138 C23.4127003,89.7454138 25.0122567,88.4724401 25.0122567,86.9017731 C25.0122567,83.7615495 28.211369,81.2144918 32.1586157,81.2144918 L32.1586157,75.5283185 C28.0536463,75.5260997 24.1468773,76.9334797 21.4390771,79.3861198 C18.731277,76.9334797 14.8259033,75.5260997 10.7195386,75.5283185 Z" id="Path" fill-rule="evenodd"></path>
                                    <path d="M112.555155,0 L112.555155,5.68728278 C116.502402,5.68728278 119.701514,8.23323017 119.701514,11.3734542 C119.701514,12.9441214 121.30107,14.2170952 123.274694,14.2170952 C125.248317,14.2170952 126.847873,12.9441214 126.847873,11.3734542 C126.847873,8.23323017 130.046985,5.68728278 133.994232,5.68728278 L133.994232,0 C129.887867,-0.00111013973 125.982494,1.40515916 123.274694,3.85779958 C120.566893,1.40515916 116.660124,-0.00111013973 112.555155,0 Z" id="Path" fill-rule="evenodd"></path>
                                    <path d="M179.329698,28.4341036 C184.418375,28.4402744 189.020287,25.428872 191.026949,20.7809453 C193.034854,16.1330184 192.060082,10.7421144 188.548423,7.08029841 C185.039248,3.41848239 179.668694,2.18800371 174.90163,3.95535134 C171.846934,1.04021525 167.648588,-0.376624894 163.44031,0.0861931754 C159.230789,0.549010929 155.445946,2.84211996 153.105254,6.35089718 C149.037293,6.04358611 145.125791,7.9763142 142.915482,11.3863569 C140.703932,14.7939317 140.548713,19.1308447 142.508189,22.6889895 C144.467666,26.2446658 148.230157,28.4501478 152.310536,28.4341036 L179.329698,28.4341036 Z M147.54223,17.375839 C147.512428,15.8503909 148.23885,14.4063987 149.485563,13.5128514 C150.733518,12.6217726 152.34158,12.3946833 153.788214,12.9056342 C155.359024,13.4178195 157.060216,12.6476904 157.703441,11.1358183 C158.834672,8.49960707 161.31444,6.67795546 164.182874,6.37804932 C167.050067,6.07814319 169.856414,7.34441337 171.515387,9.68935785 C172.501334,11.085217 174.423557,11.4505347 175.859016,10.5174933 C178.131412,9.03153929 181.102912,9.14755218 183.251133,10.807526 C185.399354,12.4650315 186.248709,15.2999459 185.362102,17.8559355 C184.474253,20.4119251 182.050364,22.1237346 179.329698,22.1150953 L152.310536,22.1150953 C149.676792,22.1150953 147.54223,19.9935375 147.54223,17.375839 Z" id="Shape" fill-rule="nonzero"></path>
                                    <path d="M49.6719787,128.973342 C47.3311114,125.46437 43.547227,123.171135 39.3386338,122.708291 C35.1287987,122.246682 30.9313819,123.662366 27.877699,126.577663 C23.1090362,124.810218 17.7393231,126.040765 14.2286434,129.701549 C10.7192057,133.363568 9.74311985,138.752302 11.7499321,143.40172 C13.7555027,148.049904 18.3565171,151.061473 23.4455747,151.056536 L50.4667559,151.056536 C54.5474396,151.073816 58.3102125,148.868212 60.2685933,145.312339 C62.2294576,141.753997 62.0742274,137.416844 59.8625117,134.007846 C57.6520378,130.598849 53.7402439,128.666014 49.6719787,128.973342 Z M50.4667559,144.738412 L23.4455747,144.738412 C20.7247047,144.747052 18.3006345,143.035148 17.4127193,140.479017 C16.5260462,137.922886 17.3754643,135.087815 19.5226043,133.430217 C21.6709861,131.770152 24.6439495,131.654132 26.9165153,133.140169 C28.3520818,134.073261 30.2744487,133.707924 31.2592275,132.311987 C32.9183248,129.966913 35.7248816,128.699339 38.5935302,129.000496 C41.4621791,129.300418 43.9408903,131.12217 45.072206,133.758528 C45.7167203,135.270484 47.4180403,136.040655 48.9889669,135.528442 C50.7896337,134.900209 52.7952043,135.40008 54.0829919,136.799719 C55.3732626,138.198124 55.6986247,140.22723 54.9125402,141.95518 C54.1239725,143.684363 52.3754628,144.777908 50.4667559,144.738412 Z" id="Shape" fill-rule="nonzero"></path>
                                    <path d="M148.28695,70.5726933 C148.28695,42.6378551 127.081169,25.2063119 92.9030783,24.9092413 C92.6030209,24.9092413 92.3210702,24.8799167 92.0158397,24.8799167 C57.2997148,24.8799167 35.7317952,42.3866835 35.7317952,70.5726933 L35.7317952,73.7091471 C35.7486087,89.2600933 42.3679788,104.09195 53.9848564,114.611819 L66.4734526,125.897954 C72.4681341,131.314074 76.7361921,138.332845 78.7602862,146.096206 L78.7602862,158.694295 L75.4493079,158.694295 C73.6205099,158.694295 72.1383296,160.155424 72.1383296,161.958247 L72.1383296,191.332539 C72.1383296,193.135363 73.6205099,194.596491 75.4493079,194.596491 L108.556504,194.596491 C110.385302,194.596491 111.867483,193.135363 111.867483,191.332539 L111.867483,161.958247 C111.867483,160.155424 110.385302,158.694295 108.556504,158.694295 L105.246819,158.694295 L105.246819,146.096206 C107.2735,138.33157 111.548025,131.312798 117.545293,125.897954 L130.033889,114.611819 C141.65206,104.09195 148.270137,89.2600933 148.28695,73.7091471 L148.28695,70.5726933 Z M92.8474641,32.6649518 C103.224018,42.2579105 110.054204,54.9924229 112.255488,68.850194 L94.4926065,48.8393637 C93.8472246,48.1674485 92.9483457,47.7862291 92.0093727,47.7862291 C91.0704002,47.7862291 90.1728145,48.1674485 89.526139,48.8393637 L72.641443,67.8531585 C75.3393731,54.2784334 82.4295226,41.9315153 92.8474641,32.6649518 Z M89.6619408,102.254702 C90.9552917,103.528408 93.0505205,103.528408 94.3438714,102.254702 L111.786001,85.060305 C109.913229,94.1215966 106.197432,102.71497 100.85848,110.318958 L98.4166333,113.932255 C95.7549169,117.868122 93.6014878,122.115084 92.0029061,126.576243 C90.4004442,122.115084 88.2418417,117.868122 85.5775388,113.932255 L83.8121149,111.319818 C78.376161,103.579407 74.6112165,94.8215612 72.7513781,85.5855972 L89.6619408,102.254702 Z M73.3605464,76.9539743 L92.0029061,55.9473841 L110.645266,76.9539743 L92.0029061,95.3315537 L73.3605464,76.9539743 Z M84.5700184,31.7342157 C74.9655948,41.4661472 68.5337605,53.8079654 66.098381,67.1710435 L58.3382757,55.6962125 C57.787308,54.8904244 56.9013627,54.3702321 55.9210026,54.2746087 C54.9406428,54.178985 53.9680429,54.5181299 53.2657533,55.2002449 L42.6486358,65.5862421 C44.8085317,45.9999805 60.017045,33.7703606 84.5700184,31.7342157 Z M64.7287224,76.9246499 L55.5407576,88.2490329 L43.5100077,73.9258941 L55.0609243,62.6244606 L64.7287224,76.9246499 Z M70.9342198,121.086174 L58.4443303,109.800041 C50.9105614,102.971241 45.6957706,94.0170479 43.5100077,84.1601684 L53.0342434,95.5024013 C53.6550518,96.2750398 54.6108382,96.7110832 55.6105984,96.6830338 C56.607772,96.6766589 57.5467449,96.2253154 58.1688466,95.4590518 L66.1164878,85.667196 C67.9944333,96.1819662 72.1512632,106.172719 78.3024401,114.95989 L80.067864,117.571051 C85.0666651,124.957017 87.999985,133.513416 88.5690594,142.37581 L84.597179,142.37581 C82.0518644,134.203181 77.3337204,126.854189 70.9342198,121.086174 Z M98.6248627,148.903714 L98.6248627,158.694295 L85.3809495,158.694295 L85.3809495,148.903714 L98.6248627,148.903714 Z M105.246819,188.068587 L78.7602862,188.068587 L78.7602862,165.222199 L105.246819,165.222199 L105.246819,188.068587 Z M125.562775,109.800041 L113.072886,121.086174 C106.677266,126.855464 101.963001,134.204456 99.4228601,142.37581 L95.4496861,142.37581 C96.0110006,133.515966 98.9339736,124.960842 103.922428,117.571051 L106.365568,113.957754 C112.197287,105.615552 116.276516,96.2049157 118.357517,86.2804619 L125.818859,95.4743516 C126.44096,96.2418901 127.381227,96.6919587 128.377107,96.7008833 C129.372987,96.7085334 130.31972,96.2750398 130.954755,95.5177008 L140.480285,84.1754679 C138.295815,94.0259729 133.087491,102.972516 125.562775,109.800041 Z M119.409011,77.1005972 C119.409011,76.9756492 119.409011,76.853251 119.409011,76.7283027 L128.937128,62.6397604 L140.489338,73.9386438 L128.458588,88.2617829 L119.409011,77.1005972 Z M130.756872,55.2129949 C130.053289,54.5257799 129.075516,54.184085 128.089983,54.2822584 C127.105743,54.379157 126.217211,54.9069994 125.667536,55.7191623 L118.688615,66.0261105 C116.277809,53.2291238 110.186126,41.3845484 101.14043,31.9037881 C124.68459,34.3555771 139.234788,46.4640736 141.361056,65.5862421 L130.756872,55.2129949 Z" id="Shape" fill-rule="nonzero"></path>
                                    <path d="M184.838232,149.157775 C182.605643,143.019527 177.048243,138.459719 170.254176,137.1908 C163.460109,135.923067 156.458241,138.138339 151.879025,143.00411 C151.325312,142.943629 150.769065,142.913981 150.211551,142.912795 C141.254583,142.912795 133.994232,149.709221 133.994232,158.091203 C133.994232,166.475557 141.254583,173.270796 150.211551,173.270796 C152.91296,173.271982 155.572554,172.631593 157.93692,171.406552 C163.467711,173.928974 169.946276,173.853076 175.407378,171.199019 C177.542403,172.555695 180.065153,173.277912 182.646189,173.270796 C189.388306,173.276726 195.012861,168.445346 195.584313,162.157674 C196.155765,155.870001 191.485319,150.219161 184.838232,149.157775 Z M182.646189,167.198959 C180.902691,167.204889 179.23015,166.547897 178.013756,165.377408 C176.905063,164.316022 175.138758,164.161854 173.83747,165.013335 C169.572488,167.775309 163.960604,167.8939 159.565114,165.315741 C158.439949,164.656377 156.998016,164.703813 155.927336,165.437889 C152.518899,167.775309 147.888999,167.787168 144.466624,165.467536 C141.045516,163.147905 139.614986,159.026883 140.923876,155.267561 C142.234034,151.50824 145.987116,148.969216 150.211551,148.984633 C150.97053,148.99412 151.725708,149.087806 152.46188,149.260949 C153.753031,149.543194 155.0974,149.062902 155.858914,148.045395 C158.835278,144.080912 164.050567,142.158559 169.118875,143.155906 C174.184649,144.154438 178.127792,147.884112 179.143988,152.636036 C179.451888,154.050822 180.781052,155.065957 182.321818,155.064771 C182.476401,155.064771 182.630984,155.054098 182.783034,155.035124 C186.371396,155.070701 189.251462,157.822002 189.21345,161.180487 C189.175437,164.538973 186.235818,167.234536 182.646189,167.198959 Z" id="Shape" fill-rule="nonzero"></path>
                                </g>
                            </g>
                            <path d="M241.409351,0.280701754 L242.646838,0.280701754 C285.85227,0.280701754 320.877193,35.3056247 320.877193,78.5110567 L320.877193,108.05073 C320.877193,140.617192 294.818541,167.196404 262.258448,167.840471 L206.058279,168.952158 C204.446156,168.984048 202.833483,168.974888 201.221827,168.924688 L166.41341,167.840471 C149.213767,167.304734 135.705002,152.927368 136.240739,135.727726 C136.298169,133.883949 136.519224,132.048914 136.901298,130.244246 L148.469446,75.6039634 C157.765925,31.6935432 196.525618,0.280701754 241.409351,0.280701754 Z" id="Rectangle" fill="url(#linearGradient-3)" fill-rule="nonzero" opacity="0.154110863" mask="url(#mask-2)"></path>
                        </g>
                    </g>
                </g>
            </g>
        </g>
    </g>
</svg>