<?xml version="1.0" encoding="UTF-8"?>
<svg width="15px" height="15px" viewBox="0 0 15 15" version="1.1" xmlns="http://www.w3.org/2000/svg" xmlns:xlink="http://www.w3.org/1999/xlink">
    <!-- Generator: Sketch 52.6 (67491) - http://www.bohemiancoding.com/sketch -->
    <title>round-clock-at-nine-oclock-</title>
    <desc>Created with Sketch.</desc>
    <g id="Symbols" stroke="none" stroke-width="1" fill="none" fill-rule="evenodd">
        <g id="header" transform="translate(-667.000000, -35.000000)" fill="#76767B">
            <g id="время" transform="translate(667.000000, 31.000000)">
                <g id="round-clock-at-nine-oclock-" transform="translate(0.000000, 4.000000)">
                    <path d="M7.50065023,0 C3.36461463,0 0,3.36408814 0,7.49961935 C0,11.6356581 3.36461463,15 7.50065023,15 C11.6358929,15 15,11.6354043 15,7.49961935 C14.9999683,3.36408814 11.6358929,0 7.50065023,0 Z M7.50065023,13.8935882 C3.97566783,13.8935882 1.10738127,11.0251015 1.10738127,7.49987312 C1.10738127,3.97489849 3.97566783,1.1069193 7.50065023,1.1069193 C11.0253789,1.1069193 13.8931579,3.97515226 13.8931579,7.49987312 C13.8931262,11.0251015 11.0253472,13.8935882 7.50065023,13.8935882 Z" id="Shape" fill-rule="nonzero"></path>
                    <path d="M11.3487687,2.57894737 C11.0478039,2.57894737 10.8028005,2.83569051 10.8028005,3.15107657 L10.8028005,7.74969129 L6.91438922,7.74969129 C6.61317404,7.74969129 6.36842105,8.00669682 6.36842105,8.32260764 C6.36842105,8.6379937 6.61342442,8.89473684 6.91438922,8.89473684 L11.3487687,8.89473684 C11.6499839,8.89473684 11.8947368,8.6379937 11.8947368,8.32260764 L11.8947368,3.15107657 C11.8947368,2.83542813 11.6499839,2.57894737 11.3487687,2.57894737 Z" id="Path" transform="translate(9.131579, 5.736842) scale(-1, 1) translate(-9.131579, -5.736842) "></path>
                </g>
            </g>
        </g>
    </g>
</svg>