<svg width="30px" height="19px" viewBox="0 0 30 19" version="1.1" xmlns="http://www.w3.org/2000/svg" xmlns:xlink="http://www.w3.org/1999/xlink">
    <g id="Symbols" stroke="none" stroke-width="1" fill="none" fill-rule="evenodd">
        <g id="sport" transform="translate(-22.000000, -329.000000)" fill="#404248" fill-rule="nonzero">
            <g id="Computer(1)" transform="translate(22.000000, 329.000000)">
                <path d="M4.82421875,2.38888889 L4.82421875,14.2222222 L24.2346048,14.2222222 L24.2346048,2.38888889 L4.82421875,2.38888889 Z M24.2346048,16.6111111 L29.0588235,16.6111111 L29.0588235,19 L0,19 L0,16.6111111 L4.82421875,16.6111111 C4.18098958,16.6111111 3.62289369,16.3703704 3.14993107,15.8888889 C2.67696844,15.4074074 2.44048713,14.8518519 2.44048713,14.2222222 L2.44048713,2.38888889 C2.44048713,1.75925926 2.67696844,1.2037037 3.14993107,0.722222222 C3.62289369,0.240740741 4.18098958,0 4.82421875,0 L24.2346048,0 C24.8778339,0 25.4359298,0.240740741 25.9088925,0.722222222 C26.3818551,1.2037037 26.6183364,1.75925926 26.6183364,2.38888889 L26.6183364,14.2222222 C26.6183364,14.8518519 26.3818551,15.4074074 25.9088925,15.8888889 C25.4359298,16.3703704 24.8778339,16.6111111 24.2346048,16.6111111 Z" id="Shape"></path>
            </g>
        </g>
    </g>
</svg>