<?xml version="1.0" encoding="UTF-8"?>
<svg width="13px" height="11px" viewBox="0 0 13 11" version="1.1" xmlns="http://www.w3.org/2000/svg" xmlns:xlink="http://www.w3.org/1999/xlink">
    <!-- Generator: Sketch 52.6 (67491) - http://www.bohemiancoding.com/sketch -->
    <title>log-out</title>
    <desc>Created with Sketch.</desc>
    <g id="Page-1" stroke="none" stroke-width="1" fill="none" fill-rule="evenodd">
        <g id="Главная" transform="translate(-876.000000, -164.000000)" fill="#FFFFFF">
            <g id="Меню" transform="translate(860.000000, 0.000000)">
                <g id="выход" transform="translate(16.000000, 162.000000)">
                    <g id="log-out" transform="translate(0.000000, 2.000000)">
                        <path d="M10.757863,1.45944641e-15 L6.39022275,1.45944641e-15 C5.6723256,1.45944641e-15 5.08542714,0.592957181 5.08542714,1.30860565 L5.08542714,2.46509032 C5.08542714,2.6443069 5.23118479,2.78952709 5.41093898,2.78952709 C5.59069316,2.78952709 5.73634904,2.6443069 5.73634904,2.46509032 L5.73634904,1.30860565 C5.7372651,0.947736965 6.02827149,0.654150611 6.39022275,0.648975041 L10.757863,0.648975041 C11.1168625,0.648975041 11.3993188,0.950781427 11.3993188,1.30860565 L11.3993188,9.69941141 C11.4035939,10.0551045 11.1178804,10.3468642 10.7611202,10.351025 L6.39032453,10.351025 C6.02979828,10.3497057 5.73787583,10.0587579 5.73634904,9.69941141 L5.73634904,8.56707935 C5.73634904,8.3877613 5.59069316,8.2425411 5.41093898,8.2425411 C5.23118479,8.2425411 5.08542714,8.3877613 5.08542714,8.56707935 L5.08542714,9.69941141 C5.08736105,10.4170895 5.67039166,10.9982748 6.39022275,11 L10.757863,11 C11.4743352,10.9973615 12.0530908,10.4158717 12.0502408,9.70144104 L12.0502408,1.30860565 C12.0502408,0.592957181 11.4757602,0 10.757863,0 Z" id="Path"></path>
                        <path d="M1.11412671,5.83358501 L8.79596674,5.83358501 C8.97523743,5.83358501 9.12060302,5.68776246 9.12060302,5.50792821 C9.12060302,5.32819581 8.97523743,5.18237326 8.79596674,5.18237326 L1.04205298,5.18237326 L2.7073619,3.25134459 C2.8248116,3.11438138 2.81019383,2.90807099 2.67497948,2.7890301 C2.54006967,2.67070201 2.33511638,2.68444926 2.2172606,2.81968135 L2.2172606,2.81988499 L0.118189754,5.24520325 C0.0408373858,5.30905151 -0.00271137451,5.40518034 0.000130975745,5.50548426 C0.00317635055,5.60599185 0.0523082926,5.69947308 0.133416582,5.75853528 L2.23269047,7.86440844 C2.35947932,7.99159585 2.56504168,7.99159585 2.69162749,7.86440844 C2.81679212,7.74119245 2.81872086,7.53976997 2.69599253,7.41421185 C2.69457134,7.41288804 2.69315016,7.41146242 2.69162749,7.41003677 L1.11412671,5.83358501 Z" id="Path"></path>
                    </g>
                </g>
            </g>
        </g>
    </g>
</svg>