<?xml version="1.0" encoding="UTF-8"?>
<svg width="14px" height="19px" viewBox="0 0 14 19" version="1.1" xmlns="http://www.w3.org/2000/svg" xmlns:xlink="http://www.w3.org/1999/xlink">
    <!-- Generator: Sketch 52.6 (67491) - http://www.bohemiancoding.com/sketch -->
    <title>Group 5</title>
    <desc>Created with Sketch.</desc>
    <defs>
        <linearGradient x1="3.7272589%" y1="50%" x2="95.6389585%" y2="50%" id="linearGradient-1">
            <stop stop-color="#F7442B" offset="0%"></stop>
            <stop stop-color="#FF3600" offset="100%"></stop>
        </linearGradient>
    </defs>
    <g id="Page-1" stroke="none" stroke-width="1" fill="none" fill-rule="evenodd">
        <g id="Главная" transform="translate(-605.000000, -324.000000)" fill-rule="nonzero">
            <g id="наполнение" transform="translate(71.000000, 83.000000)">
                <g id="середина" transform="translate(245.000000, 0.000000)">
                    <g id="показатели" transform="translate(17.000000, 180.000000)">
                        <g id="коэф-борьбы" transform="translate(167.000000, 39.000000)">
                            <g id="градусник" transform="translate(0.000000, 22.000000)">
                                <g id="Group-5" transform="translate(105.000000, 0.000000)">
                                    <circle id="Oval" fill="#FFFFFF" cx="8.5" cy="14.5" r="4.5"></circle>
                                    <g id="fire" fill="url(#linearGradient-1)">
                                        <path d="M13.9601146,11.1242332 C13.7462865,8.29059962 12.4501198,6.51487966 11.3066406,4.94789986 C10.2478177,3.49722078 9.33333333,2.24448303 9.33333333,0.396511152 C9.33333333,0.248073715 9.25166667,0.112401897 9.12216667,0.0443804416 C8.99226563,-0.024049217 8.8361875,-0.0128421905 8.71809896,0.0745132414 C7.00076563,1.32532131 5.56788021,3.4334669 5.06734375,5.44494262 C4.71985937,6.84533851 4.67388542,8.41966597 4.66743229,9.45943311 C3.08149479,9.11465005 2.72223438,6.70001826 2.71844271,6.67370772 C2.70057813,6.54846363 2.62540104,6.43947345 2.51602604,6.37995003 C2.40552083,6.32120592 2.27561979,6.31693834 2.16358333,6.37338168 C2.08042188,6.41435041 0.12228125,7.42706483 0.00834895833,11.4705377 C0.000364583333,11.6050592 0,11.7399888 0,11.8748813 C0,15.8031668 3.14033854,18.9993959 7,18.9993959 C7.00532292,18.999767 7.01101042,19.0005463 7.01556771,18.9993959 C7.01709896,18.9993959 7.01859375,18.9993959 7.02048958,18.9993959 C10.8706719,18.9881517 14,15.7962273 14,11.8748813 C14,11.6773482 13.9601146,11.1242332 13.9601146,11.1242332 Z M7,18.207779 C5.7133125,18.207779 4.66666667,17.0729377 4.66666667,15.6779598 C4.66666667,15.6304227 4.66630208,15.5824774 4.66969271,15.5237333 C4.68526042,14.9354386 4.79503646,14.5338411 4.91542187,14.266728 C5.14102604,14.7599484 5.54432812,15.2133506 6.19944792,15.2133506 C6.41440625,15.2133506 6.58834896,15.0363018 6.58834896,14.8175422 C6.58834896,14.2539994 6.59976042,13.6038435 6.73760937,13.0170703 C6.86029167,12.4967971 7.15345312,11.9432739 7.52489062,11.4995572 C7.69008333,12.0754945 8.01215625,12.5416252 8.32660937,12.9965859 C8.77665104,13.6474841 9.24185937,14.3204623 9.32352604,15.4680692 C9.32844792,15.5360907 9.33340625,15.6045204 9.33340625,15.6779598 C9.33333333,17.0729006 8.2866875,18.207779 7,18.207779 Z" id="Shape"></path>
                                    </g>
                                </g>
                            </g>
                        </g>
                    </g>
                </g>
            </g>
        </g>
    </g>
</svg>