<svg width="26px" height="26px" viewBox="0 0 26 26" version="1.1" xmlns="http://www.w3.org/2000/svg" xmlns:xlink="http://www.w3.org/1999/xlink">
    <g id="Symbols" stroke="none" stroke-width="1" fill="none" fill-rule="evenodd">
        <g id="sport" transform="translate(-22.000000, -14.000000)" fill="#404248" fill-rule="nonzero">
            <g id="football">
                <g id="Ios-Football" transform="translate(22.000000, 14.000000)">
                    <path d="M13,0 C20.1875,0 26,5.8125 26,13 C26,20.1875 20.1875,26 13,26 C5.8125,26 0,20.1875 0,13 C0,5.8125 5.8125,0 13,0 Z M15.5625,24.625 C15.75,24.5625 15.875,24.5625 16.0625,24.5 L17.5625,20.5 L16.3125,18.0625 L16.3125,18 L9.6875,18 L8.4375,20.4375 L10,24.5 C10.125,24.5625 10.3125,24.5625 10.4375,24.625 C11.1875,24.8125 12,24.9375 12.8125,24.9375 C13.6875,24.9375 14.6875,24.8125 15.5625,24.625 Z M8.875,1.8125 C6.625,2.6875 4.625,4.1875 3.25,6.125 L4.625,10.125 L4.9375,10.25 L8,11.6875 L12.4375,7.9375 L12.4375,4.3125 L8.875,1.8125 Z M22.75,6.125 C21.375,4.1875 19.375,2.625 17.125,1.8125 L13.5,4.3125 L13.5,7.9375 L17.9375,11.6875 L21.3125,10.1875 L22.75,6.125 Z M1.125,14.0625 C1.3125,16.1875 2.0625,18.1875 3.1875,19.8125 L7.5625,19.875 L8.875,17.4375 L7.625,12.625 L7.5625,12.5625 L4.5,11.1875 L1.125,14.0625 Z M18.4375,19.875 L22.8125,19.8125 C23.9375,18.1875 24.6875,16.1875 24.875,14.0625 L21.5,11.1875 L18.375,12.625 L17.125,17.4375 L18.4375,19.875 Z" id="Shape"></path>
                </g>
            </g>
        </g>
    </g>
</svg>