<svg width="26px" height="21px" viewBox="0 0 26 21" version="1.1" xmlns="http://www.w3.org/2000/svg" xmlns:xlink="http://www.w3.org/1999/xlink">
    <g id="Symbols" stroke="none" stroke-width="1" fill="none" fill-rule="evenodd">
        <g id="sport" transform="translate(-22.000000, -180.000000)" fill="#404248">
            <g id="hockey(6)" transform="translate(22.000000, 180.000000)">
                <path d="M21.9944258,1.90508487 C19.5792187,0.676597786 16.3849258,0 13,0 C9.61507422,0 6.42078125,0.676597786 4.00557422,1.90508487 C1.42253516,3.21896679 0,5.02832472 0,7 C0,8.97167528 1.42253516,10.7810849 4.00557422,12.0949151 C6.42078125,13.3234022 9.61507422,14 13,14 C16.3849258,14 19.5792187,13.3234022 21.9944258,12.0949151 C24.5774648,10.7810849 26,8.97167528 26,7 C26,5.02832472 24.5774648,3.21896679 21.9944258,1.90508487 Z" id="Path"></path>
                <path d="M22.6757578,13.4034503 C20.0531094,14.6719326 16.6168438,15.3704992 13,15.3704992 C9.38315625,15.3704992 5.94689062,14.6718834 3.32424219,13.4034503 C1.93105859,12.7296413 0.814023438,11.9217778 0,11 L0,14.3439437 C0,16.2186429 1.42253516,17.9391474 4.00557422,19.1885211 C6.42078125,20.3565976 9.61507422,21 13,21 C16.3849258,21 19.5792187,20.3565976 21.9944258,19.1885211 C24.5774648,17.9391474 26,16.2186429 26,14.3439437 L26,11 C25.1859766,11.9217778 24.0689414,12.7296413 22.6757578,13.4034503 Z" id="Path"></path>
            </g>
        </g>
    </g>
</svg>