<?xml version="1.0" encoding="UTF-8"?>
<svg width="12px" height="12px" viewBox="0 0 12 12" version="1.1" xmlns="http://www.w3.org/2000/svg" xmlns:xlink="http://www.w3.org/1999/xlink">
    <!-- Generator: Sketch 52.6 (67491) - http://www.bohemiancoding.com/sketch -->
    <title>icons8-instagram_filled</title>
    <desc>Created with Sketch.</desc>
    <g id="Symbols" stroke="none" stroke-width="1" fill="none" fill-rule="evenodd">
        <g id="footer" transform="translate(-880.000000, -13.000000)" fill="#FFFFFF" fill-rule="nonzero">
            <g id="соц" transform="translate(837.000000, 6.000000)">
                <g id="инст" transform="translate(36.000000, 0.000000)">
                    <g id="icons8-instagram_filled" transform="translate(7.000000, 7.000000)">
                        <path d="M2.45454545,0 C1.10181818,0 0,1.10181818 0,2.45454545 L0,9.54545455 C0,10.8981818 1.10181818,12 2.45454545,12 L9.54545455,12 C10.8981818,12 12,10.8981818 12,9.54545455 L12,2.45454545 C12,1.10181818 10.8981818,0 9.54545455,0 L2.45454545,0 Z M9.54545455,1.36363636 L10.3636364,1.36363636 C10.5136364,1.36363636 10.6363636,1.48636364 10.6363636,1.63636364 L10.6363636,2.45454545 C10.6363636,2.60454545 10.5136364,2.72727273 10.3636364,2.72727273 L9.54545455,2.72727273 C9.39545455,2.72727273 9.27272727,2.60454545 9.27272727,2.45454545 L9.27272727,1.63636364 C9.27272727,1.48636364 9.39545455,1.36363636 9.54545455,1.36363636 Z M6,1.90909091 C7.45363636,1.90909091 8.73264218,2.67272727 9.45809673,3.81818182 L10.6363636,3.81818182 L10.6363636,9.27272727 C10.6363636,10.0254545 10.0254545,10.6363636 9.27272727,10.6363636 L2.72727273,10.6363636 C1.97454545,10.6363636 1.36363636,10.0254545 1.36363636,9.27272727 L1.36363636,3.81818182 L2.54190327,3.81818182 C3.26735809,2.67272727 4.54636364,1.90909091 6,1.90909091 Z M6,2.45454545 C4.04454545,2.45454545 2.45454545,4.04454545 2.45454545,6 C2.45454545,7.95545455 4.04454545,9.54545455 6,9.54545455 C7.95545455,9.54545455 9.54545455,7.95545455 9.54545455,6 C9.54545455,4.04454545 7.95545455,2.45454545 6,2.45454545 Z M6,3.54545455 C7.35272727,3.54545455 8.45454545,4.64727273 8.45454545,6 C8.45454545,7.35272727 7.35272727,8.45454545 6,8.45454545 C4.64727273,8.45454545 3.54545455,7.35272727 3.54545455,6 C3.54545455,4.64727273 4.64727273,3.54545455 6,3.54545455 Z" id="Shape"></path>
                    </g>
                </g>
            </g>
        </g>
    </g>
</svg>