<svg width="13" height="15" viewBox="0 0 13 15" fill="none" xmlns="http://www.w3.org/2000/svg">
<path fill-rule="evenodd" clip-rule="evenodd" d="M6.56475 0C4.41639 0 2.68025 1.71169 2.68025 3.82979V5.42553H1.38542C0.835365 5.42553 0.414291 5.84067 0.414291 6.38298V14.0426C0.414291 14.5849 0.835365 15 1.38542 15H11.7441C12.2941 15 12.7152 14.5849 12.7152 14.0426V6.38298C12.7152 5.84067 12.2941 5.42553 11.7441 5.42553H10.4492V3.82979C10.4492 1.71169 8.71311 0 6.56475 0ZM6.56475 0.638298C8.36664 0.638298 9.80183 2.05327 9.80183 3.82979V5.42553H3.32767V3.82979C3.32767 2.05327 4.76286 0.638298 6.56475 0.638298ZM7.53587 9.57447C7.53587 9.03216 7.1148 8.61702 6.56475 8.61702C6.0147 8.61702 5.59362 9.03216 5.59362 9.57447C5.59362 9.86121 5.7226 10.113 5.91733 10.2726V11.1702C5.91733 11.5218 6.20816 11.8085 6.56475 11.8085C6.92133 11.8085 7.21216 11.5218 7.21216 11.1702V10.2726C7.40689 10.113 7.53587 9.86121 7.53587 9.57447Z" fill="url(#paint0_linear)"/>
<defs>
<linearGradient id="paint0_linear" x1="-5.73617" y1="7.5" x2="8.97345" y2="19.5628" gradientUnits="userSpaceOnUse">
<stop stop-color="#3CD8DF"/>
<stop offset="1" stop-color="#288BD9"/>
</linearGradient>
</defs>
</svg>
