<?xml version="1.0" encoding="UTF-8"?>
<svg width="459px" height="408px" viewBox="0 0 459 408" version="1.1" xmlns="http://www.w3.org/2000/svg" xmlns:xlink="http://www.w3.org/1999/xlink">
    <!-- Generator: Sketch 52.6 (67491) - http://www.bohemiancoding.com/sketch -->
    <title>ss</title>
    <desc>Created with Sketch.</desc>
    <defs>
        <linearGradient x1="126.171178%" y1="38.5774969%" x2="14.4589176%" y2="62.3624063%" id="linearGradient-1">
            <stop stop-color="#808080" offset="0%"></stop>
            <stop stop-color="#636363" offset="100%"></stop>
        </linearGradient>
        <linearGradient x1="100.005862%" y1="49.9974263%" x2="1.5649953%" y2="49.9974263%" id="linearGradient-2">
            <stop stop-color="#9B9B9B" offset="0%"></stop>
            <stop stop-color="#8F8F8F" offset="100%"></stop>
        </linearGradient>
        <linearGradient x1="72.0107163%" y1="16.7242247%" x2="5.90150066%" y2="79.6781974%" id="linearGradient-3">
            <stop stop-color="#ADADAD" offset="0%"></stop>
            <stop stop-color="#A9A9A9" offset="100%"></stop>
        </linearGradient>
    </defs>
    <g id="Symbols" stroke="none" stroke-width="1" fill="none" fill-rule="evenodd">
        <g id="ss">
            <path d="M318.141597,291.432258 C317.542912,291.103335 316.854425,290.89402 316.345544,290.445489 C306.557055,282.312122 298.834027,272.53414 292.936986,261.290956 C284.405735,244.934516 281.651787,227.411894 282.998827,209.171622 C283.298169,205.075036 283.44784,201.068157 282.909024,196.971571 C280.723826,180.256306 272.581719,167.248899 258.422835,158.188567 C254.441584,155.64689 249.80178,154.121884 245.551122,151.939032 C237.887962,148.021858 230.883356,143.117916 224.59717,137.227206 C214.479405,127.748245 206.726443,116.624669 201.547823,103.796675 C197.416902,93.5701618 194.962296,82.9250196 194.842559,71.8313461 C194.812625,69.2298647 194.812625,66.6582854 194.782691,64.056804 C194.842559,63.3690561 194.872493,62.651406 194.962296,61.9636581 C195.980059,54.9964723 195.77052,48.0890907 194.184006,41.1817091 C187.808018,13.5222806 159.699789,-4.59838289 131.801099,1.02320907 C103.453396,6.73450729 84.8941818,33.0782441 89.0251037,61.6646372 C89.2346432,63.0401331 89.35438,64.4455311 89.3843143,65.821027 C89.8333275,90.5201491 82.020497,112.229063 65.706349,130.768355 C56.7560183,140.905162 46.1293714,148.769411 33.5270663,154.091982 C6.73594255,165.424872 -5.95616525,196.134313 4.85008691,223.135896 C10.387917,236.950659 20.2961426,246.549228 33.76654,252.73896 C60.2882558,264.968912 77.7997725,285.122918 86.1214847,313.081367 C89.3244458,323.87602 90.4020776,334.969693 89.1747748,346.212877 C88.5461562,352.103588 88.516222,357.964396 89.6836564,363.765401 C95.3711576,391.963067 121.6534,410.472457 150.12084,406.375872 C178.438608,402.309188 198.584336,376.23457 195.501112,348.395729 C193.106374,326.866228 181.491898,312.064696 161.675447,303.542602 C160.388276,303.004364 159.07117,302.496029 157.843867,301.868085 C147.6363,296.545514 138.745837,289.578328 131.142546,280.966528 C118.60011,266.733135 110.877082,250.077674 106.686291,231.687892 C103.064251,215.750081 102.55537,199.692661 105.099778,183.575437 C107.793857,166.561151 113.571161,150.593438 123.120176,136.150731 C128.32873,128.286482 134.525113,121.319297 142.068535,115.578096 C146.109655,118.986934 149.971168,122.51538 153.473472,126.522259 C161.585644,135.821808 167.632356,146.227733 171.673475,157.829742 C174.098147,164.82683 175.864266,171.973428 176.283345,179.389145 C176.582687,184.950933 176.852095,190.542623 176.582687,196.074509 C176.313279,201.247569 175.954068,206.390728 176.822161,211.533887 C179.815582,229.116313 189.334663,242.034013 204.840587,250.645814 C207.534667,252.140918 210.498154,253.157589 213.252102,254.562987 C224.477433,260.304187 234.235988,267.839513 242.408029,277.527788 C250.220859,286.797434 256.087966,297.083752 259.94948,308.53625 C262.284349,315.443632 263.960665,322.530426 264.319875,329.826535 C264.559349,334.879987 264.589283,339.963341 264.589283,345.016794 C264.589283,349.801127 263.900796,354.615363 264.439612,359.339892 C266.115928,374.201228 272.970864,386.461083 284.764945,395.611121 C296.828435,405.000376 310.717911,408.768039 325.83469,406.226361 C346.908379,402.668013 361.067263,390.467963 368.490949,370.463468 C370.017594,366.33698 370.55641,361.971276 371.12516,357.635473 C371.873515,352.103588 370.676147,346.751115 370.406739,341.308935 C370.406739,341.219229 370.316936,341.129523 370.287002,341.039816 C370.227133,333.654001 370.706081,326.268186 372.412331,319.061784 C379.71628,288.143028 397.587007,265.716465 426.742934,252.73896 C446.529451,243.947747 459.550835,223.973154 458.982085,202.11473 C458.443269,181.153368 445.302148,161.95623 425.425829,153.882667 C423.959052,153.284625 422.432407,152.716486 421.025499,151.968934 C402.256745,141.981637 388.277466,127.419322 379.267267,108.162379 C372.741608,94.2579098 370.107396,79.6058882 370.706081,64.2960207 C370.945555,58.6146246 371.244897,52.8734243 370.586344,47.2817344 C367.084041,17.4693558 339.245219,-3.55180992 309.490608,0.873698647 C280.364615,5.23940304 259.799809,32.689517 264.499481,61.6646372 C267.852113,82.35688 279.735997,96.5005661 299.253106,104.215304 C300.540277,104.723639 301.857383,105.202073 303.084686,105.859919 C318.860018,114.322209 331.492257,126.193336 340.203114,141.802225 C356.547196,171.13617 360.498513,202.294142 352.565946,234.887415 C349.452787,247.655605 344.423839,259.646341 336.940285,270.560602 C331.552126,278.424851 325.26594,285.272428 318.141597,291.432258 Z" id="Path" fill="#FFFFFF"></path>
            <path d="M141.204241,115.594304 C133.653562,121.306409 127.421255,128.304485 122.237654,136.169843 C112.679453,150.61459 106.926555,166.554651 104.19992,183.601246 C101.653064,199.720746 102.132472,215.780432 105.78796,231.720494 C109.982782,250.112873 117.683276,266.770686 130.267741,281.006088 C137.878347,289.619104 146.807325,296.587274 156.994749,301.910596 C158.223232,302.568535 159.541605,303.047036 160.830014,303.585349 C180.665529,312.108647 192.291178,326.912269 194.688219,348.44481 C197.774409,376.287582 177.609302,402.365881 149.264292,406.433139 C120.769466,410.530303 94.4319782,392.018299 88.7689688,363.816652 C87.6004113,358.014828 87.6303743,352.153192 88.2595976,346.261649 C89.4880811,335.046784 88.4094126,323.951545 85.2033703,313.125461 C76.8736527,285.133158 59.3452903,265.006214 32.798061,252.774534 C19.3147052,246.554022 9.39694799,236.984004 3.85379063,223.16729 C-6.96285697,196.161895 5.74146044,165.448118 32.5583569,154.113628 C45.1428222,148.790305 55.8096548,140.954853 64.7685956,130.786708 C81.1284005,112.244798 88.9187839,90.5029128 88.4693387,65.8302096 C88.4393757,64.4545195 88.2895606,63.048923 88.1097825,61.6732329 C83.9748868,33.0828035 102.551955,6.73534714 130.926928,1.02324252 C158.852456,-4.59914318 186.987725,13.5240788 193.339883,41.2472253 C194.927923,48.1256759 195.137664,55.0639391 194.118922,62.0321086 C194.029033,62.7199537 193.99907,63.4077987 193.939144,64.1255501 C193.459735,65.8302096 193.01029,67.5647754 192.470956,69.2694349 C187.107577,85.8076226 176.260966,97.2318318 160.110902,103.781313 C153.12952,106.592506 146.897214,110.68967 141.204241,115.594304 Z" id="Path" fill="url(#linearGradient-1)"></path>
            <path d="M141,115.645561 C146.706374,110.726937 152.953352,106.618085 159.921135,103.768882 C176.079183,97.2007181 186.951327,85.7439211 192.357366,69.1585578 C192.897969,67.4490358 193.348473,65.7095221 193.829009,64 C193.859043,66.6092705 193.859043,69.1885494 193.889076,71.79782 C194.009211,82.9247092 196.471962,93.5717326 200.616591,103.858857 C205.842428,116.72526 213.591083,127.882141 223.742422,137.389483 C230.049467,143.297831 237.077317,148.216456 244.765905,152.145357 C249.030669,154.334745 253.685869,155.834326 257.680331,158.413605 C271.886198,167.501064 280.055323,180.547417 282.247772,197.31273 C282.788376,201.39159 282.638208,205.440458 282.337873,209.549309 C280.986363,227.844194 283.749449,245.389289 292.30901,261.824694 C298.195586,273.101542 305.974274,282.9088 315.795244,291.066519 C316.305815,291.486402 316.996586,291.726335 317.597257,292.056242 C318.197928,292.716058 318.738532,293.465848 319.429303,294.005697 C325.07561,298.174532 331.022253,301.833509 337.509499,304.592738 C353.487346,311.400834 363.93902,323.157547 368.924589,339.772902 C369.134824,340.492701 369.585327,341.152517 369.915696,341.842324 C369.94573,341.932299 370.03583,342.022273 370.03583,342.112248 C370.306132,347.570722 371.507474,352.969213 370.756635,358.48767 C370.185998,362.866446 369.645394,367.21523 368.113683,371.354073 C360.665364,391.418464 346.459496,403.655043 325.315879,407.224045 C310.148937,409.773332 296.213372,405.994389 284.109852,396.577022 C272.276634,387.399587 265.398952,375.073033 263.717074,360.197192 C263.17647,355.488509 263.867241,350.629867 263.867241,345.831209 C263.867241,340.762626 263.837208,335.664051 263.596939,330.595468 C263.236537,323.277514 261.554658,316.169501 259.212041,309.241438 C255.337714,297.724658 249.451139,287.407542 241.612383,278.140133 C233.413224,268.452841 223.622288,260.864963 212.359708,255.106572 C209.596622,253.696967 206.6233,252.677252 203.920281,251.177671 C188.362904,242.570077 178.782202,229.583708 175.808881,211.948638 C174.937908,206.79008 175.328344,201.631522 175.568613,196.442973 C175.838915,190.894524 175.568613,185.286092 175.268277,179.707652 C174.877841,172.269731 173.075828,165.101735 170.643111,158.083697 C166.618616,146.416959 160.521806,135.979877 152.382714,126.682476 C148.928856,122.633608 145.054529,119.064606 141,115.645561 Z" id="Path" fill="url(#linearGradient-2)"></path>
            <path d="M369.939926,342 C369.60925,341.309692 369.158328,340.649397 368.947897,339.929075 C363.957693,323.301652 353.4963,311.536399 337.503597,304.723357 C331.010318,301.962125 325.058147,298.30049 319.40659,294.128627 C318.685114,293.618399 318.174069,292.838051 317.57284,292.177756 C324.727471,285.994996 331.070441,279.121927 336.421384,271.28843 C343.936752,260.333539 349.017141,248.298166 352.113472,235.482444 C360.079763,202.767838 356.111648,171.493876 339.698084,142.05073 C330.980257,126.383736 318.294315,114.468416 302.421858,105.974624 C301.189337,105.314329 299.866632,104.834115 298.573989,104.323887 C278.973909,96.5804296 267.009442,82.3840915 263.672619,61.6148188 C258.952968,32.5318344 279.6052,4.94951997 308.855013,0.597576996 C338.736117,-3.87441958 366.723348,17.2550139 370.210479,47.1783735 C370.871832,52.7908793 370.541155,58.5834655 370.330725,64.255998 C369.729496,79.6228587 372.374905,94.3294246 378.928306,108.285656 C387.97681,127.584272 402.015518,142.230811 420.864061,152.255286 C422.276951,153.005621 423.780024,153.575876 425.283098,154.176144 C445.243916,162.279762 458.440903,181.548365 458.982009,202.587758 C459.553177,224.527553 446.476436,244.576504 426.605803,253.400444 C397.325928,266.426259 379.379228,288.936309 372.044229,319.970165 C370.360787,327.203394 369.879803,334.58669 369.939926,342 Z" id="Path" fill="url(#linearGradient-3)"></path>
        </g>
    </g>
</svg>