<svg width="11" height="13" viewBox="0 0 11 13" fill="none" xmlns="http://www.w3.org/2000/svg">
<path fill-rule="evenodd" clip-rule="evenodd" d="M7.09106 7.95461C7.01299 7.92833 6.52307 7.69946 6.82951 6.73494H6.82463C7.62392 5.88309 8.23484 4.51185 8.23484 3.16284C8.23484 1.0878 6.90173 0 5.35294 0C3.80366 0 2.47885 1.08729 2.47885 3.16284C2.47885 4.51792 3.08538 5.89421 3.88906 6.74403C4.20233 7.59487 3.64215 7.91115 3.52504 7.95511C1.90305 8.56292 0 9.66992 0 10.7628V11.172C0 12.6615 2.78821 13 5.36856 13C7.9528 13 10.7059 12.6615 10.7059 11.1725V10.7633C10.7059 9.63657 8.79307 8.53867 7.09155 7.95511L7.09106 7.95461Z" fill="#494949"/>
</svg>
