<svg width="10" height="12" viewBox="0 0 10 12" fill="none" xmlns="http://www.w3.org/2000/svg">
<path fill-rule="evenodd" clip-rule="evenodd" d="M9.6 11.1818V6.27273C9.6 6.04545 9.52222 5.85227 9.36667 5.69318C9.21111 5.53409 9.02222 5.45455 8.8 5.45455H8.53333V3.81818C8.53333 2.77273 8.16667 1.875 7.43333 1.125C6.7 0.375 5.82222 0 4.8 0C3.77778 0 2.9 0.375 2.16667 1.125C1.43333 1.875 1.06667 2.77273 1.06667 3.81818V5.45455H0.8C0.577778 5.45455 0.388889 5.53409 0.233333 5.69318C0.0777778 5.85227 0 6.04545 0 6.27273V11.1818C0 11.4091 0.0777778 11.6023 0.233333 11.7614C0.388889 11.9205 0.577778 12 0.8 12H8.8C9.02222 12 9.21111 11.9205 9.36667 11.7614C9.52222 11.6023 9.6 11.4091 9.6 11.1818ZM6.93333 3.81818V5.45455H2.66667V3.81818C2.66667 3.21591 2.875 2.7017 3.29167 2.27557C3.70833 1.84943 4.21111 1.63636 4.8 1.63636C5.38889 1.63636 5.89167 1.84943 6.30833 2.27557C6.725 2.7017 6.93333 3.21591 6.93333 3.81818Z" fill="#494949"/>
</svg>
