<svg xmlns="http://www.w3.org/2000/svg" xmlns:xlink="http://www.w3.org/1999/xlink" width="14" height="14" viewBox="0 0 14 14">
	<defs>
		<path id="neqla" d="M273.828 309.2a.3.3 0 0 0-.177.094l-9.662 9.671a.304.304 0 0 0-.084.13l-.595 2.235a.297.297 0 0 0 .363.363l2.234-.596a.304.304 0 0 0 .13-.084l9.672-9.662a.3.3 0 0 0-.42-.428l-9.615 9.616-1.21-1.21 9.616-9.616a.298.298 0 0 0-.224-.512h-.028zm1.727-1.2c-.373 0-.744.145-1.028.428l-.243.242 2.056 2.048.243-.242a1.443 1.443 0 0 0 0-2.048 1.457 1.457 0 0 0-1.028-.428z"/>
	</defs>
	<g>
		<g transform="translate(-263 -308)">
			<use id="pen" fill="#a8a8a8" xlink:href="#neqla"/>
		</g>
	</g>
</svg>