<svg width="15px" height="15px" viewBox="0 0 15 15" version="1.1" xmlns="http://www.w3.org/2000/svg" xmlns:xlink="http://www.w3.org/1999/xlink">
    <g id="Symbols" stroke="none" stroke-width="1" fill="none" fill-rule="evenodd">
        <g id="header" transform="translate(-765.000000, -35.000000)" fill="#76767B" fill-rule="nonzero">
            <g id="setup" transform="translate(765.000000, 35.000000)">
                <path d="M0,11.6668571 L0,13.332486 L4.99874322,13.332486 L4.99874322,11.6668571 L0,11.6668571 Z M0,1.66748548 L0,3.33311435 L8.33374274,3.33311435 L8.33374274,1.66748548 L0,1.66748548 Z M8.33374274,15 L8.33374274,13.3325145 L15,13.3325145 L15,11.6668857 L8.33374274,11.6668857 L8.33374274,9.99937161 L6.66625726,9.99937161 L6.66625726,15 L8.33374274,15 Z M3.33499951,5.00062839 L3.33499951,6.66625726 L0,6.66625726 L0,8.33374274 L3.33499951,8.33374274 L3.33499951,9.99937161 L4.99874322,9.99937161 L4.99874322,5.00062839 L3.33499951,5.00062839 Z M15,8.33374274 L15,6.66625726 L6.66625726,6.66625726 L6.66625726,8.33374274 L15,8.33374274 Z M10.0012282,5.00062839 L11.6649719,5.00062839 L11.6649719,3.33314291 L14.9999714,3.33314291 L14.9999714,1.66748548 L11.6650005,1.66748548 L11.6650005,0 L10.0012282,0 C10.0012282,0 10.0012282,5.00062839 10.0012282,5.00062839 Z" id="Shape"></path>
            </g>
        </g>
    </g>
</svg>