<?xml version="1.0" encoding="UTF-8"?>
<svg width="11px" height="11px" viewBox="0 0 11 11" version="1.1" xmlns="http://www.w3.org/2000/svg" xmlns:xlink="http://www.w3.org/1999/xlink">
    <!-- Generator: Sketch 52.6 (67491) - http://www.bohemiancoding.com/sketch -->
    <title>small-calendar(1)</title>
    <desc>Created with Sketch.</desc>
    <g id="Page-1" stroke="none" stroke-width="1" fill="none" fill-rule="evenodd">
        <g id="Главная" transform="translate(-95.000000, -133.000000)" fill="#FFFFFF">
            <g id="наполнение" transform="translate(71.000000, 83.000000)">
                <g id="статистика-всех-циклов" transform="translate(11.000000, 15.000000)">
                    <g id="фильтр" transform="translate(3.000000, 28.000000)">
                        <g id="месяц">
                            <g id="small-calendar(1)" transform="translate(10.165473, 7.164773)">
                                <path d="M9.04009907,1.00754616 L7.70445479,1.00754616 L7.70445479,0.335848722 C7.70445479,0.150124379 7.56669914,0 7.3962766,0 C7.22585406,0 7.0880984,0.150124379 7.0880984,0.335848722 L7.0880984,1.00754616 L5.23902926,1.00754616 L5.23902926,0.335848722 C5.23902926,0.150124379 5.10096543,0 4.93085106,0 C4.7607367,0 4.62267287,0.150124379 4.62267287,0.335848722 L4.62267287,1.00754616 L2.77360372,1.00754616 L2.77360372,0.335848722 C2.77360372,0.150124379 2.63553989,0 2.46542553,0 C2.29531117,0 2.15724734,0.150124379 2.15724734,0.335848722 L2.15724734,1.00754616 L0.821911237,1.00754616 C0.367964761,1.00754616 0,1.40821369 0,1.90291886 L0,9.85145055 C0,10.3461557 0.367964761,10.7471591 0.821911237,10.7471591 L9.04009907,10.7471591 C9.49404555,10.7471591 9.86170213,10.3461557 9.86170213,9.85145055 L9.86170213,1.90291886 C9.86170213,1.40821369 9.49404555,1.00754616 9.04009907,1.00754616 Z M9.24534574,9.85145055 C9.24534574,9.97504288 9.15320047,10.0754616 9.04009907,10.0754616 L0.821911237,10.0754616 C0.708501662,10.0754616 0.616356383,9.97504288 0.616356383,9.85145055 L0.616356383,1.90291886 C0.616356383,1.77966238 0.708501662,1.67924361 0.821911237,1.67924361 L2.15724734,1.67924361 L2.15724734,2.35094105 C2.15724734,2.53666539 2.29531117,2.68678977 2.46542553,2.68678977 C2.63553989,2.68678977 2.77360372,2.53666539 2.77360372,2.35094105 L2.77360372,1.67924361 L4.62267287,1.67924361 L4.62267287,2.35094105 C4.62267287,2.53666539 4.7607367,2.68678977 4.93085106,2.68678977 C5.10096543,2.68678977 5.23902926,2.53666539 5.23902926,2.35094105 L5.23902926,1.67924361 L7.0880984,1.67924361 L7.0880984,2.35094105 C7.0880984,2.53666539 7.22585406,2.68678977 7.3962766,2.68678977 C7.56669914,2.68678977 7.70445479,2.53666539 7.70445479,2.35094105 L7.70445479,1.67924361 L9.04009907,1.67924361 C9.15320047,1.67924361 9.24534574,1.77966238 9.24534574,1.90291886 L9.24534574,9.85145055 Z" id="Shape" fill-rule="nonzero"></path>
                                <rect id="Rectangle" x="2.15724734" y="4.03018466" width="1.23271277" height="1.00754616"></rect>
                                <rect id="Rectangle" x="2.15724734" y="5.70942827" width="1.23271277" height="1.00754616"></rect>
                                <rect id="Rectangle" x="2.15724734" y="7.38867188" width="1.23271277" height="1.00754616"></rect>
                                <rect id="Rectangle" x="4.31449468" y="7.38867188" width="1.23271277" height="1.00754616"></rect>
                                <rect id="Rectangle" x="4.31449468" y="5.70942827" width="1.23271277" height="1.00754616"></rect>
                                <rect id="Rectangle" x="4.31449468" y="4.03018466" width="1.23271277" height="1.00754616"></rect>
                                <rect id="Rectangle" x="6.47174202" y="7.38867188" width="1.23271277" height="1.00754616"></rect>
                                <rect id="Rectangle" x="6.47174202" y="5.70942827" width="1.23271277" height="1.00754616"></rect>
                                <rect id="Rectangle" x="6.47174202" y="4.03018466" width="1.23271277" height="1.00754616"></rect>
                            </g>
                        </g>
                    </g>
                </g>
            </g>
        </g>
    </g>
</svg>