<?xml version="1.0" encoding="UTF-8"?>
<svg width="12px" height="12px" viewBox="0 0 12 12" version="1.1" xmlns="http://www.w3.org/2000/svg" xmlns:xlink="http://www.w3.org/1999/xlink">
    <!-- Generator: Sketch 52.6 (67491) - http://www.bohemiancoding.com/sketch -->
    <title>graph(1)</title>
    <desc>Created with Sketch.</desc>
    <g id="Page-1" stroke="none" stroke-width="1" fill="none" fill-rule="evenodd">
        <g id="Главная" transform="translate(-91.000000, -98.000000)" fill="#FFFFFF">
            <g id="наполнение" transform="translate(71.000000, 83.000000)">
                <g id="статистика-всех-циклов" transform="translate(11.000000, 15.000000)">
                    <g id="статистика-заголовок" transform="translate(9.000000, 0.000000)">
                        <g id="graph(1)">
                            <path d="M11.5762274,11.1524548 L0.84754522,11.1524548 L0.84754522,0.42377261 C0.84754522,0.186046512 0.661498708,0 0.42377261,0 C0.186046512,0 0,0.186046512 0,0.42377261 L0,11.5762274 C0,11.8139535 0.186046512,12 0.42377261,12 L11.5762274,12 C11.8139535,12 12,11.8139535 12,11.5762274 C12,11.3385013 11.8139535,11.1524548 11.5762274,11.1524548 Z" id="Path"></path>
                            <path d="M4.5,9.33816964 L4.5,3.41183036 C4.5,3.18080357 4.33536585,3 4.125,3 C3.91463415,3 3.75,3.18080357 3.75,3.41183036 L3.75,9.33816964 C3.75,9.56919643 3.91463415,9.75 4.125,9.75 C4.33536585,9.75 4.5,9.56919643 4.5,9.33816964 Z" id="Path"></path>
                            <path d="M3,9.33816964 L3,3.41183036 C3,3.18080357 2.83536585,3 2.625,3 C2.41463415,3 2.25,3.18080357 2.25,3.41183036 L2.25,9.33816964 C2.25,9.56919643 2.41463415,9.75 2.625,9.75 C2.83536585,9.75 3,9.56919643 3,9.33816964 Z" id="Path"></path>
                            <path d="M9,9.33816964 L9,3.41183036 C9,3.18080357 8.83536585,3 8.625,3 C8.41463415,3 8.25,3.18080357 8.25,3.41183036 L8.25,9.33816964 C8.25,9.56919643 8.41463415,9.75 8.625,9.75 C8.83536585,9.75 9,9.56919643 9,9.33816964 Z" id="Path"></path>
                            <path d="M10.5,9.34217507 L10.5,6.40782493 C10.5,6.17904509 10.3353659,6 10.125,6 C9.91463415,6 9.75,6.17904509 9.75,6.40782493 L9.75,9.34217507 C9.75,9.57095491 9.91463415,9.75 10.125,9.75 C10.3353659,9.75 10.5,9.57095491 10.5,9.34217507 Z" id="Path"></path>
                            <path d="M6.75,9.34217507 L6.75,6.40782493 C6.75,6.17904509 6.58536585,6 6.375,6 C6.16463415,6 6,6.17904509 6,6.40782493 L6,9.34217507 C6,9.57095491 6.16463415,9.75 6.375,9.75 C6.58536585,9.75 6.75,9.57095491 6.75,9.34217507 Z" id="Path"></path>
                        </g>
                    </g>
                </g>
            </g>
        </g>
    </g>
</svg>