<?xml version="1.0" encoding="UTF-8"?>
<svg width="9px" height="13px" viewBox="0 0 9 13" version="1.1" xmlns="http://www.w3.org/2000/svg" xmlns:xlink="http://www.w3.org/1999/xlink">
    <!-- Generator: Sketch 52.6 (67491) - http://www.bohemiancoding.com/sketch -->
    <title>list-on-a-clipboard-interface-outlined-symbol</title>
    <desc>Created with Sketch.</desc>
    <g id="Page-1" stroke="none" stroke-width="1" fill="none" fill-rule="evenodd">
        <g id="Главная" transform="translate(-877.000000, -94.000000)" fill="#FFFFFF">
            <g id="Меню" transform="translate(860.000000, 0.000000)">
                <g id="подписка" transform="translate(17.000000, 94.000000)">
                    <g id="list-on-a-clipboard-interface-outlined-symbol" transform="translate(-0.000000, 0.000000)">
                        <path d="M1.39285714,10.6785714 L2.78571429,10.6785714 L2.78571429,9.28571429 L1.39285714,9.28571429 L1.39285714,10.6785714 Z M1.85716713,9.75 L2.32145285,9.75 L2.32145285,10.2142857 L1.85716713,10.2142857 L1.85716713,9.75 Z" id="Shape" fill-rule="nonzero"></path>
                        <path d="M1.39285714,8.82142857 L2.78571429,8.82142857 L2.78571429,7.42857143 L1.39285714,7.42857143 L1.39285714,8.82142857 Z M1.85716713,7.89285714 L2.32145285,7.89285714 L2.32145285,8.35714286 L1.85716713,8.35714286 L1.85716713,7.89285714 Z" id="Shape" fill-rule="nonzero"></path>
                        <circle id="Oval" cx="4.41071429" cy="1.625" r="1"></circle>
                        <rect id="Rectangle" x="3.25" y="5.57142857" width="3.71428571" height="1"></rect>
                        <path d="M7.47742061,2.16666667 L7.03757099,2.16666667 C7.03757099,1.68998867 6.64169483,1.3 6.15787174,1.3 L5.71802211,1.3 C5.71802211,0.563322004 5.10223264,0 4.39849624,0 L3.95864662,0 C3.21089076,0 2.63909774,0.563322004 2.63909774,1.3 L2.19924812,1.3 C1.71540203,1.3 1.31954887,1.68998867 1.31954887,2.16666667 L0.879699248,2.16666667 C0.395853162,2.16666667 0,2.55665534 0,3.03333333 L0,12.1333333 C0,12.6099887 0.395853162,13 0.879699248,13 L7.47744361,13 C7.9612667,13 8.35714286,12.6099887 8.35714286,12.1333333 L8.35714286,3.03333333 C8.35711986,2.55665534 7.9612667,2.16666667 7.47742061,2.16666667 Z M1.7593985,2.16666667 C1.7593985,1.90666667 1.93533835,1.73333333 2.19924812,1.73333333 L3.07894737,1.73333333 L3.07894737,1.3 C3.07894737,0.823322004 3.47480053,0.433333333 3.95864662,0.433333333 L4.39849624,0.433333333 C4.88231933,0.433333333 5.27819549,0.823322004 5.27819549,1.3 L5.27819549,1.73333333 L6.15789474,1.73333333 C6.42180451,1.73333333 6.59774436,1.90666667 6.59774436,2.16666667 L6.59774436,2.6 C6.59774436,2.86 6.42180451,3.03333333 6.15789474,3.03333333 L2.19922512,3.03333333 C1.93531535,3.03333333 1.7593755,2.86 1.7593755,2.6 L1.7593755,2.16666667 L1.7593985,2.16666667 Z M7.91729323,12.1333333 C7.91729323,12.3933333 7.74135338,12.5666667 7.47744361,12.5666667 L0.879699248,12.5666667 C0.659785935,12.5666667 0.439849624,12.3933333 0.439849624,12.1333333 L0.439849624,3.03333333 C0.439849624,2.77333333 0.615789474,2.6 0.879699248,2.6 L1.31954887,2.6 C1.31954887,3.076678 1.71540203,3.46666667 2.19924812,3.46666667 L6.15789474,3.46666667 C6.64171782,3.46666667 7.03759398,3.076678 7.03759398,2.6 L7.47744361,2.6 C7.69735692,2.6 7.91729323,2.77333333 7.91729323,3.03333333 L7.91729323,12.1333333 Z" id="Shape" fill-rule="nonzero"></path>
                        <rect id="Rectangle" x="3.25" y="7.89285714" width="3.71428571" height="1"></rect>
                        <rect id="Rectangle" x="3.25" y="9.75" width="3.71428571" height="1"></rect>
                        <path d="M1.39285714,6.5 L2.78571429,6.5 L2.78571429,5.10714286 L1.39285714,5.10714286 L1.39285714,6.5 Z M1.85716713,5.57142857 L2.32145285,5.57142857 L2.32145285,6.03571429 L1.85716713,6.03571429 L1.85716713,5.57142857 Z" id="Shape" fill-rule="nonzero"></path>
                    </g>
                </g>
            </g>
        </g>
    </g>
</svg>