<svg width="14" height="11" viewBox="0 0 14 11" fill="none" xmlns="http://www.w3.org/2000/svg">
<path d="M7 0C4.96094 0 3.15625 0.210938 2.05859 0.375C1.16016 0.507813 0.445313 1.21094 0.28125 2.11328C0.140625 2.90234 0 4.05469 0 5.5C0 6.94531 0.140625 8.09766 0.28125 8.88672C0.445313 9.78906 1.16016 10.4883 2.05859 10.625C3.16016 10.7891 4.97266 11 7 11C9.02734 11 10.8359 10.7891 11.9375 10.625H11.9414C12.8398 10.4922 13.5547 9.78906 13.7188 8.88672C13.8594 8.09375 14 6.94141 14 5.5C14 4.05469 13.8594 2.90234 13.7148 2.11328C13.5547 1.21094 12.8398 0.507813 11.9414 0.375C10.8438 0.210938 9.03906 0 7 0ZM7 1C8.96875 1 10.7305 1.20312 11.793 1.36328C12.2617 1.43359 12.6406 1.80078 12.7305 2.28906C12.8633 3.02734 13 4.12109 13 5.5C13 6.87891 12.8633 7.97266 12.7344 8.70703C12.6445 9.19922 12.2656 9.56641 11.793 9.63672C10.7227 9.79297 8.95703 10 7 10C5.04297 10 3.27344 9.79297 2.20703 9.63672C1.73828 9.56641 1.35547 9.19922 1.26562 8.70703C1.13672 7.96875 1 6.87891 1 5.5C1 4.11719 1.13672 3.02734 1.26562 2.28906C1.35547 1.80078 1.73438 1.43359 2.20312 1.36719H2.20703C3.26953 1.20703 5.03125 1 7 1ZM5 3V8L10 5.5L5 3Z" fill="#FF3030"/>
</svg>
