<svg xmlns="http://www.w3.org/2000/svg" xmlns:xlink="http://www.w3.org/1999/xlink" width="13" height="13" viewBox="0 0 13 13">
	<defs>
		<path id="3xa1a" d="M662.408 563.002h-.013c-2.172-.071-4.715-2.176-6.468-3.93-1.754-1.753-3.86-4.298-3.927-6.46-.025-.757 1.836-2.106 1.855-2.12.483-.336 1.02-.216 1.24.089.148.206 1.56 2.343 1.713 2.586.159.252.135.626-.064 1.002-.11.209-.472.848-.643 1.145.184.262.67.904 1.675 1.909 1.005 1.004 1.646 1.492 1.91 1.676.297-.17.936-.534 1.145-.644.37-.196.742-.22.996-.065.26.159 2.391 1.576 2.588 1.713a.74.74 0 0 1 .292.546c.02.234-.052.48-.202.696-.013.018-1.345 1.857-2.097 1.857z"/>
	</defs>
	<g>
		<g transform="translate(-652 -550)">
			<use fill="#424242" xlink:href="#3xa1a"/>
		</g>
	</g>
</svg>