<svg width="25px" height="25px" viewBox="0 0 25 25" version="1.1" xmlns="http://www.w3.org/2000/svg" xmlns:xlink="http://www.w3.org/1999/xlink">
    <g id="Symbols" stroke="none" stroke-width="1" fill="none" fill-rule="evenodd">
        <g id="sport" transform="translate(-22.000000, -77.000000)" fill="#404248" fill-rule="nonzero">
            <g id="Ios-Tennisball" transform="translate(22.000000, 77.000000)">
                <path d="M12.5875,24.7353125 L12.7175,24.7353125 L12.5875,24.7353125 Z M12.35,0 C19.178125,0 24.7,5.521875 24.7,12.35 C24.7,12.825 24.7,13.3 24.640625,13.775 C23.9875,19.534375 19.296875,24.10625 13.5375,24.640625 C13.18125,24.7 12.765625,24.7 12.35,24.7 C5.521875,24.7 0,19.178125 0,12.35 L0,12.1125 C0,11.75625 0,11.459375 0.059375,11.1625 C0.59375,5.403125 5.165625,0.7125 10.925,0.059375 C11.28125,0 11.578125,0 11.875,0 L12.35,0 Z M4.928125,13.003125 C6.471875,13.596875 7.778125,14.546875 8.965625,15.734375 C10.153125,16.921875 11.103125,18.228125 11.696875,19.771875 C12.171875,21.01875 12.528125,22.384375 12.5875,23.690625 C12.884375,23.690625 13.240625,23.690625 13.5375,23.63125 C13.359375,20.484375 12.053125,17.396875 9.678125,15.021875 C7.303125,12.646875 4.215625,11.340625 1.06875,11.1625 C1.009375,11.459375 1.009375,11.815625 1.009375,12.1125 C2.315625,12.171875 3.68125,12.528125 4.928125,13.003125 Z M14.84375,9.85625 C17.278125,12.290625 20.365625,13.596875 23.571875,13.775 C23.63125,13.478125 23.63125,13.121875 23.63125,12.825 C22.20625,12.765625 20.9,12.46875 19.59375,11.934375 C18.05,11.340625 16.684375,10.390625 15.496875,9.203125 C14.309375,8.015625 13.359375,6.65 12.765625,5.10625 C12.23125,3.8 11.934375,2.49375 11.875,1.06875 C11.578125,1.06875 11.221875,1.06875 10.925,1.128125 C11.103125,4.334375 12.409375,7.421875 14.84375,9.85625 Z" id="Shape"></path>
            </g>
        </g>
    </g>
</svg>