<?xml version="1.0" encoding="UTF-8"?>
<svg width="12px" height="8px" viewBox="0 0 12 8" version="1.1" xmlns="http://www.w3.org/2000/svg" xmlns:xlink="http://www.w3.org/1999/xlink">
    <!-- Generator: Sketch 52.6 (67491) - http://www.bohemiancoding.com/sketch -->
    <title>youtube-logo</title>
    <desc>Created with Sketch.</desc>
    <g id="Symbols" stroke="none" stroke-width="1" fill="none" fill-rule="evenodd">
        <g id="footer" transform="translate(-916.000000, -15.000000)" fill="#FFFFFF" fill-rule="nonzero">
            <g id="соц" transform="translate(837.000000, 6.000000)">
                <g id="ютуб" transform="translate(72.000000, 0.000000)">
                    <g id="youtube-logo" transform="translate(7.000000, 9.000000)">
                        <path d="M11.859319,3.06250376 C11.8551641,2.83753181 11.8369812,2.5530825 11.8051946,2.20941853 C11.7732293,1.86555753 11.7275039,1.55825421 11.6680408,1.28748666 C11.6000001,0.983357504 11.4522359,0.72708168 11.2248153,0.518746751 C10.9973947,0.310368039 10.7326924,0.189574497 10.4307308,0.156190997 C9.48678233,0.0521001505 8.06036091,0 6.15142185,0 C4.24246045,0 2.81601669,0.0521001505 1.87213525,0.156190997 C1.57021828,0.189552606 1.30656587,0.310368039 1.0812897,0.518746751 C0.855924187,0.727016008 0.709232211,0.983291832 0.641191438,1.28748666 C0.577484188,1.55834177 0.529592061,1.8656232 0.497716098,2.20941853 C0.465884811,2.5530825 0.447791237,2.83742236 0.443569403,3.06250376 C0.439258218,3.28749761 0.43715847,3.59996716 0.43715847,4 C0.43715847,4.39998905 0.439258218,4.71254618 0.443591741,4.93749624 C0.447813575,5.16262143 0.465907149,5.4469175 0.497738436,5.79055958 C0.529614399,6.13439869 0.575339764,6.44170201 0.634869856,6.71251334 C0.702910629,7.01673006 0.850630141,7.2729621 1.0780954,7.48120947 C1.30560534,7.6895444 1.57032997,7.81035983 1.87215758,7.84372144 C2.81603902,7.94792174 4.24239343,8 6.15144418,8 C8.06056195,8 9.48680467,7.94792174 10.4307531,7.84372144 C10.7327148,7.81038172 10.9962555,7.6895444 11.221621,7.48120947 C11.4469865,7.27294021 11.5935891,7.01657682 11.6616299,6.71251334 C11.7253818,6.44170201 11.7732293,6.13439869 11.8051946,5.79055958 C11.8369812,5.44693939 11.8550301,5.16249008 11.859319,4.93749624 C11.8635855,4.71254618 11.8657299,4.39998905 11.8657299,4 C11.8657299,3.59996716 11.8636078,3.28749761 11.859319,3.06250376 Z M8.40912013,4.33751266 L5.14385549,6.33743604 C5.08430306,6.37909427 5.01195111,6.39991244 4.92695598,6.39991244 C4.8632264,6.39991244 4.79733005,6.38318785 4.72931161,6.34987002 C4.58903057,6.27495964 4.51891239,6.15823779 4.51891239,5.99994527 L4.51891239,2.00007662 C4.51891239,1.84182788 4.58905291,1.72510603 4.72931161,1.65012998 C4.87390384,1.57502257 5.01204046,1.57922561 5.14385549,1.66262963 L8.40914247,3.66257491 C8.53664632,3.73328225 8.60039825,3.84584485 8.60039825,4.00002189 C8.60039825,4.15413326 8.53662398,4.26673964 8.40912013,4.33751266 Z" id="Shape"></path>
                    </g>
                </g>
            </g>
        </g>
    </g>
</svg>