<svg width="59" height="59" viewBox="0 0 59 59" fill="none" xmlns="http://www.w3.org/2000/svg">
	<path fill-rule="evenodd" clip-rule="evenodd" d="M28.2708 0V22.125H30.7292V0H28.2708ZM25.8125 3.98519C14.5339 5.60807 5.60327 14.5339 3.97559 25.8125H6.45312C8.0424 15.8927 15.8879 8.052 25.8125 6.46753V3.98519ZM33.1875 6.46753V3.98519C44.4661 5.60807 53.3967 14.5339 55.0244 25.8125H52.5421C50.9576 15.8927 43.1121 8.052 33.1875 6.46753ZM25.8125 16.5025C21.3184 17.7797 17.7797 21.3232 16.5025 25.8125H19.0761C20.1948 22.682 22.6772 20.1948 25.8125 19.0857V16.5025ZM33.1875 19.0857V16.5025C37.6816 17.7797 41.2203 21.3232 42.4975 25.8125H39.9239C38.8052 22.682 36.3228 20.1948 33.1875 19.0857ZM29.5048 25.8125C27.469 25.8125 25.8125 27.4642 25.8125 29.5C25.8125 31.5358 27.469 33.1875 29.5048 33.1875C31.5406 33.1875 33.1251 31.5358 33.1251 29.5C33.1251 27.4642 31.5406 25.8125 29.5048 25.8125ZM0 30.7292V28.2708H22.125V30.7292H0ZM36.875 30.7292H59V28.2708H36.875V30.7292ZM25.8125 55.0196C14.5339 53.3919 5.60327 44.4661 3.97559 33.1875H6.45793C8.0424 43.1073 15.8879 50.948 25.8125 52.5325V55.0196ZM16.5025 33.1875C17.7797 37.6768 21.3184 41.2203 25.8125 42.4975V39.9143C22.6772 38.8052 20.1948 36.318 19.0761 33.1875H16.5025ZM33.1875 39.9239C36.318 38.8052 38.8052 36.3228 39.9143 33.1875H42.4975C41.2203 37.6816 37.6768 41.2203 33.1875 42.4975V39.9239ZM52.5325 33.1875C50.948 43.1121 43.1073 50.9576 33.1875 52.5421V55.0244C44.4661 53.3967 53.3919 44.4661 55.0196 33.1875H52.5325ZM28.2708 59V36.875H30.7292V59H28.2708Z" fill="url(#paint0_linear)"/>
	<defs>
		<linearGradient id="paint0_linear" x1="-12.957" y1="14.0273" x2="15.0977" y2="73.0273" gradientUnits="userSpaceOnUse">
			<stop stop-color="#32B5E2"/>
			<stop offset="1" stop-color="#2D9EE1"/>
		</linearGradient>
	</defs>
</svg>
