<svg width="56" height="61" viewBox="0 0 56 61" fill="none" xmlns="http://www.w3.org/2000/svg">
	<g>
		<path fill-rule="evenodd" clip-rule="evenodd" d="M23.7325 0C17.5367 0 13.5549 2.90072 12.3112 6.01516C7.43135 7.06703 4 12.4789 4 18.4325C4 20.8833 4.70136 23.3368 5.91575 26.0612C4.92381 27.2914 4 28.8341 4 31.1087C4 34.0899 5.92561 36.9621 9.35655 38.5618C8.27902 41.1034 8.51003 43.5549 9.79387 45.2993C11.1274 47.1112 13.3681 48.054 15.7742 48.2405C16.5036 50.1826 17.8173 51.5318 19.2727 52.1741C20.9303 52.9056 22.6262 53 23.7325 53C25.4238 53 26.9067 52.1919 27.8703 50.9387C28.8333 52.1846 30.3118 52.9877 31.9948 53H31.997C33.0429 53.0076 34.732 52.9109 36.4035 52.1809C37.846 51.5509 39.1574 50.2244 39.9087 48.3328C41.7257 48.2733 43.6054 48.0005 45.1986 47.0906C46.9887 46.0683 48.3264 44.1331 48.3264 41.4783C48.3264 40.4402 47.9573 39.4821 47.5206 38.5191C48.9801 37.7835 50.1301 36.842 50.7594 35.6791C51.5526 34.2134 51.7362 32.6066 51.7362 31.1087C51.7362 28.8121 50.6662 27.4306 49.6273 26.302C50.8598 23.578 51.7763 20.9451 51.7362 18.4145C51.6305 11.6923 47.1616 6.97337 42.315 5.99716C41.235 3.11916 38.1639 0 32.0037 0C30.4533 0 28.9469 0.403758 27.9968 1.645C27.9685 1.68194 27.9435 1.72159 27.9184 1.76122C27.9019 1.78725 27.8854 1.81328 27.8681 1.83853C27.8507 1.81328 27.8342 1.78725 27.8178 1.76122C27.7927 1.72159 27.7676 1.68194 27.7393 1.645C26.7892 0.403758 25.2828 0 23.7325 0ZM23.7325 2.30435C24.9587 2.30435 25.5197 2.5024 25.9434 3.05596C26.3672 3.60952 26.7315 4.85217 26.7315 7.12683V13.6326C26.7112 13.757 26.7112 13.8839 26.7315 14.0084V18.4348H23.3218V12.6739H18.5624C18.088 11.3405 16.8355 10.3696 15.3658 10.3696C13.4961 10.3696 11.956 11.9307 11.956 13.8261C11.956 15.7214 13.4961 17.2826 15.3658 17.2826C16.8355 17.2826 18.088 16.3117 18.5624 14.9783H21.0486V20.7391H26.7315V29.9565H18.7755V37.0856C17.4601 37.5665 16.5023 38.8361 16.5023 40.3261C16.5023 42.2214 18.0424 43.7826 19.9121 43.7826C21.7817 43.7826 23.3218 42.2214 23.3218 40.3261C23.3218 38.8361 22.364 37.5665 21.0486 37.0856V32.2609H26.7315V40.1326C26.7112 40.257 26.7112 40.3839 26.7315 40.5084V47.6217C26.7315 49.5072 25.5271 50.6957 23.7325 50.6957C22.7747 50.6957 21.3663 50.5843 20.1807 50.0611C18.9951 49.5378 18.0335 48.7186 17.6056 46.9623L17.3925 46.087H16.5023C14.418 46.087 12.5625 45.2077 11.6164 43.9221C10.6702 42.6366 10.4198 40.9563 11.7962 38.6113L12.5154 37.3849L11.1813 36.9303C7.71276 35.7485 6.27315 33.3854 6.27315 31.1087C6.27315 29.1273 6.99862 28.128 8.02463 26.9906L8.46638 26.5H12.1691C12.6435 27.8334 13.896 28.8043 15.3658 28.8043C17.2354 28.8043 18.7755 27.2432 18.7755 25.3478C18.7755 23.4525 17.2354 21.8913 15.3658 21.8913C13.896 21.8913 12.6435 22.8622 12.1691 24.1957H7.56068C6.69917 22.0681 6.27315 20.2336 6.27315 18.4325C6.27315 13.1442 9.54132 8.51557 13.2302 8.05622L13.9805 7.96395L14.1848 7.22809C14.6936 5.41418 17.9107 2.30435 23.7325 2.30435ZM40.4148 7.22809C39.8189 5.10723 37.8254 2.30435 32.0037 2.30435C30.7774 2.30435 30.2164 2.5024 29.7927 3.05596C29.369 3.60952 29.0047 4.85217 29.0047 7.12683V12.6739H38.3104C38.7847 11.3405 40.0372 10.3696 41.507 10.3696C43.3767 10.3696 44.9167 11.9307 44.9167 13.8261C44.9167 15.7214 43.3767 17.2826 41.507 17.2826C40.0372 17.2826 38.7847 16.3117 38.3104 14.9783H29.0047V19.4047C29.0249 19.5291 29.0249 19.6561 29.0047 19.7805V30.9264C29.0249 31.0508 29.0249 31.1778 29.0047 31.3022V39.1739H33.7641C34.2384 37.8405 35.4909 36.8696 36.9607 36.8696C38.8304 36.8696 40.3704 38.4308 40.3704 40.3261C40.3704 42.2214 38.8304 43.7826 36.9607 43.7826C35.4909 43.7826 34.2384 42.8117 33.7641 41.4783H29.0047V47.6217C29.0047 49.5072 30.2083 50.6824 32.0126 50.6957C32.8807 50.7019 34.2953 50.5937 35.5044 50.0656C36.7136 49.5375 37.7057 48.7061 38.1306 46.9623L38.3437 46.087H39.2338C41.0245 46.087 42.846 45.7892 44.082 45.0833C45.3181 44.3774 46.0533 43.4322 46.0533 41.4783C46.0533 40.8728 45.6545 39.8392 45.0654 38.6203L45.0632 38.6181C44.9292 38.3893 44.8774 38.1205 44.9167 37.8575V33.413H34.6875V27.4361C33.3721 26.9553 32.4144 25.6856 32.4144 24.1957C32.4144 22.3003 33.9544 20.7391 35.8241 20.7391C37.6938 20.7391 39.2338 22.3003 39.2338 24.1957C39.2338 25.6856 38.2761 26.9553 36.9607 27.4361V31.1087H47.1899V36.1967C47.9303 35.7275 48.4331 35.1847 48.766 34.5697C49.2883 33.6044 49.463 32.4072 49.463 31.1087C49.463 29.2962 48.7938 28.613 47.7346 27.5315L47.7343 27.5312L47.624 27.4184L47.5162 27.3079L46.9568 26.734L47.3008 26.0027C48.641 23.1583 49.4967 20.573 49.463 18.4528C49.3691 12.4777 45.2016 8.53343 41.3693 8.05622L40.6212 7.96395L40.4148 7.22809ZM15.3658 12.6739C15.9839 12.6739 16.4551 13.1449 16.489 13.7608C16.4865 13.805 16.4865 13.8494 16.489 13.8936C16.454 14.5084 15.9831 14.9783 15.3658 14.9783C14.7246 14.9783 14.2292 14.4761 14.2292 13.8261C14.2292 13.1761 14.7246 12.6739 15.3658 12.6739ZM42.6436 13.8261C42.6436 13.1761 42.1482 12.6739 41.507 12.6739C40.8896 12.6739 40.4187 13.1438 40.3837 13.7586C40.3862 13.8028 40.3862 13.8471 40.3837 13.8913C40.4177 14.5072 40.8889 14.9783 41.507 14.9783C42.1482 14.9783 42.6436 14.4761 42.6436 13.8261ZM35.8241 23.0435C36.4653 23.0435 36.9607 23.5457 36.9607 24.1957C36.9607 24.8222 36.496 25.2999 35.8885 25.3343C35.8611 25.3326 35.8337 25.3318 35.8063 25.3321L35.7829 25.3329L35.7575 25.3343C35.1511 25.2988 34.6875 24.8215 34.6875 24.1957C34.6875 23.5457 35.1829 23.0435 35.8241 23.0435ZM16.5023 25.3478C16.5023 24.6979 16.0069 24.1957 15.3658 24.1957C14.7484 24.1957 14.2775 24.6656 14.2425 25.2803C14.245 25.3245 14.245 25.3689 14.2425 25.4131C14.2764 26.029 14.7476 26.5 15.3658 26.5C16.0069 26.5 16.5023 25.9978 16.5023 25.3478ZM36.9607 39.1739C37.6019 39.1739 38.0973 39.6761 38.0973 40.3261C38.0973 40.9761 37.6019 41.4783 36.9607 41.4783C36.3426 41.4783 35.8714 41.0072 35.8374 40.3913C35.8399 40.3471 35.8399 40.3028 35.8374 40.2586C35.8724 39.6438 36.3433 39.1739 36.9607 39.1739ZM19.9786 39.1874C19.935 39.19 19.8913 39.19 19.8477 39.1874C19.2401 39.2218 18.7755 39.6995 18.7755 40.3261C18.7755 40.9761 19.2709 41.4783 19.9121 41.4783C20.5532 41.4783 21.0486 40.9761 21.0486 40.3261C21.0486 39.7003 20.5851 39.2229 19.9786 39.1874Z" fill="url(#paint0_linear)"/>
	</g>
	<defs>
		<filter id="filter0_d" x="0" y="0" width="55.7374" height="61.0004" filterUnits="userSpaceOnUse" color-interpolation-filters="sRGB">
			<feFlood flood-opacity="0" result="BackgroundImageFix"/>
			<feColorMatrix in="SourceAlpha" type="matrix" values="0 0 0 0 0 0 0 0 0 0 0 0 0 0 0 0 0 0 127 0"/>
			<feOffset dy="4"/>
			<feGaussianBlur stdDeviation="2"/>
			<feColorMatrix type="matrix" values="0 0 0 0 0 0 0 0 0 0 0 0 0 0 0 0 0 0 0.25 0"/>
			<feBlend mode="normal" in2="BackgroundImageFix" result="effect1_dropShadow"/>
			<feBlend mode="normal" in="SourceGraphic" in2="effect1_dropShadow" result="shape"/>
		</filter>
		<linearGradient id="paint0_linear" x1="-7.4859" y1="15.6931" x2="25.3756" y2="65.6744" gradientUnits="userSpaceOnUse">
			<stop stop-color="#32B7E2"/>
			<stop offset="1" stop-color="#2C9BE0"/>
		</linearGradient>
	</defs>
</svg>
