<svg xmlns="http://www.w3.org/2000/svg" xmlns:xlink="http://www.w3.org/1999/xlink" width="57" height="57" viewBox="0 0 57 57">
	<defs>
		<path id="3fa7a" d="M1328.923 310.74h13.55c-.247 5.36-2.139 10.274-5.152 14.303-4.75-3.1-8.002-8.3-8.398-14.303zm-11.185 0h8.713c.396 6.762 3.99 12.664 9.288 16.224-4.494 4.953-10.856 8.175-18 8.509zm-11.194 0h8.708v24.733c-7.141-.334-13.5-3.556-17.995-8.51 5.298-3.56 8.89-9.46 9.287-16.223zm-16.021 0h13.564c-.397 6.003-3.65 11.203-8.404 14.303-3.016-4.03-4.909-8.944-5.16-14.303zm46.798-16.781c3.013 4.03 4.905 8.944 5.151 14.304h-13.55c.397-6.003 3.648-11.203 8.398-14.304zm-41.638 0c4.754 3.1 8.007 8.3 8.404 14.304h-13.564c.252-5.36 2.144-10.274 5.16-14.304zm22.055-10.434c7.145.339 13.507 3.559 18 8.51-5.296 3.559-8.89 9.458-9.287 16.218h-8.713zm-2.486 0v24.728h-8.708c-.396-6.76-3.989-12.659-9.287-16.218 4.496-4.951 10.854-8.171 17.995-8.51zm1.229-2.525c-.073.005-.14.01-.213.024-8.727.068-16.525 4.073-21.706 10.328-.13.106-.242.242-.314.392a28.317 28.317 0 0 0-6.226 17.515 1.275 1.275 0 0 0 0 .47 28.372 28.372 0 0 0 6.158 17.448c.092.222.247.416.445.551 5.18 6.206 12.945 10.178 21.633 10.25.155.03.315.03.47 0 8.692-.067 16.466-4.039 21.647-10.25.198-.135.348-.329.44-.547a28.33 28.33 0 0 0 6.163-17.438 1.275 1.275 0 0 0 0-.47 28.345 28.345 0 0 0-6.226-17.525 1.226 1.226 0 0 0-.31-.396c-5.18-6.255-12.983-10.26-21.715-10.328a1.421 1.421 0 0 0-.246-.024z"/>
	</defs>
	<g transform="translate(-1288 -281)"><use fill="#fff" xlink:href="#3fa7a"/>
	</g>
</svg>