<svg width="1440" height="1023" viewBox="0 0 1440 1023" fill="none" xmlns="http://www.w3.org/2000/svg" xmlns:xlink="http://www.w3.org/1999/xlink">
	<defs>
		<path id="bg3" opacity="0.0212612" d="M-85.8206 131.541C-85.8206 131.541 -691.277 174.788 30.5818 174.788C90.1853 174.788 90.1853 90.3149 138.17 82.2133C186.154 74.1118 186.717 212.081 253.144 212.081C319.572 212.081 359.64 6.28365 446.199 0.705526C541.268 -5.42107 643.936 30.5457 887.844 24.1587C921.546 23.2761 954.11 40.489 990.254 37.1899C1247.2 13.7368 1437.15 149.163 1437.15 149.163L1447.37 398.635C1447.37 398.635 1187.6 89.1821 1048.48 82.2133C909.371 75.2446 909.899 49.2836 857.969 49.2836C763.518 49.2836 802.35 149.163 708.814 149.163C672.295 149.163 637.202 149.368 610.994 158.241C488.26 199.791 566.304 149.163 439.258 149.163C312.211 149.163 326.015 265.092 253.144 265.092C180.273 265.092 180.273 202.401 133.027 202.401C85.781 202.401 109.597 274.448 -2.85184 281.233C-115.301 288.018 -85.8206 131.541 -85.8206 131.541Z" fill="white"/>
	</defs>
	<defs>
		<path id="line" opacity="0.142113" d="M0 121.828C0 121.828 47.2227 42.4375 101.34 42.4375C206.053 42.4375 205.913 157.047 263.633 157.047C330.52 157.047 330.52 86.1326 386.156 86.1326C496.332 86.1326 591.535 140.52 684.199 141.035C751.445 141.409 825.94 71.5581 925.078 65.1602C974.612 61.9635 1024.87 96.5545 1131.21 96.5545C1235.56 96.5545 1228.75 1 1320.18 1C1387.96 1 1424.14 63.281 1440 96.5545" stroke="white" stroke-width="2" stroke-linecap="square"/>
	</defs>
	<defs>
		<path id="oval" d="M11.5 21C16.7467 21 21 16.7467 21 11.5C21 6.25329 16.7467 2 11.5 2C6.25329 2 2 6.25329 2 11.5C2 16.7467 6.25329 21 11.5 21Z" fill="#20232B" stroke="url(#paint3)" stroke-width="3"/>
		<defs>
			<linearGradient id="paint3" x1="2.24775" y1="2" x2="2.24775" y2="20.5045" gradientUnits="userSpaceOnUse">
				<stop stop-color="#39D3E5"/>
				<stop offset="1" stop-color="#2B95E1"/>
			</linearGradient>
		</defs>
	</defs>
	<path d="M-2.77538 -2.9824L1440.22 -6V1023C1440.22 1023 1316.25 858.014 1263.89 804.051C1176.31 713.798 1102.24 657.257 1044.2 654.332C905.082 647.322 898.872 743.879 846.941 743.879C752.491 743.879 726.407 759.008 701.666 759.008C650.301 759.008 629.189 761.91 602.98 770.834C480.246 812.629 511.896 705.43 411.154 705.43C310.412 705.43 309.215 880.812 236.344 880.812C163.473 880.812 178.033 797.093 131.021 797.093C84.0098 797.093 112.674 883.142 0.224617 889.966C-112.225 896.791 -2.77538 -2.9824 -2.77538 -2.9824Z" fill="url(#paint1)"/>
	<defs>
		<linearGradient id="paint1" x1="-104.515" y1="237.136" x2="258.758" y2="1488.18" gradientUnits="userSpaceOnUse">
			<stop stop-color="#3EE7E6"/>
			<stop offset="1" stop-color="#277AE0"/>
		</linearGradient>
	</defs>
	<path d="M0 -7H1440V997.02C1440 997.02 1187.76 657.539 1048.65 650.57C909.535 643.602 885.833 747.547 833.902 747.547C739.451 747.547 794.977 747.547 701.441 747.547C664.922 747.547 629.83 747.752 603.621 756.625C480.887 798.176 511.672 700.281 410.93 700.281C310.188 700.281 310.188 865.383 237.316 865.383C164.445 865.383 177.809 791.41 130.797 791.41C83.7852 791.41 112.449 867.215 0 874C-112.449 880.785 0 -7 0 -7Z" fill="url(#paint2)"/>
	<defs>
		<linearGradient id="paint2" x1="188.926" y1="15.7765" x2="188.926" y2="745.871" gradientUnits="userSpaceOnUse">
			<stop stop-color="#242831"/>
			<stop offset="1" stop-color="#1C1E25"/>
		</linearGradient>
	</defs>
	<use xlink:href="#bg3" x="0" y="500"/>
	<use xlink:href="#line" x="0" y="450"/>
	<use xlink:href="#oval" x="80" y="480"/>
	<use xlink:href="#oval" x="255" y="595"/>
	<use xlink:href="#oval" x="1080" y="535"/>
	<use xlink:href="#oval" x="1310" y="440"/>
</svg>
