<svg xmlns="http://www.w3.org/2000/svg" xmlns:xlink="http://www.w3.org/1999/xlink" width="20" height="36" viewBox="0 0 20 36">
	<defs>
		<path id="ic2ka" d="M90.773 340v3.36c-6.87.36-8.037 5.4-8.037 7.68 0 11.28 16.81 5.28 16.81 13.8 0 1.08-.245 5.88-7.484 5.88-.245 0-7.731 0-7.486-7.56H82c.245 8.04 5.46 9.12 8.773 9.48V376h2.454v-3.36c8.22-.6 8.773-6.6 8.773-7.8 0-10.8-16.81-5.28-16.81-13.56 0-2.76 1.106-6 6.872-6 5.89 0 6.626 4.56 6.748 6.6h2.577c.245-3.36-2.208-8.28-8.098-8.52V340z"/>
	</defs>
	<g transform="translate(-82 -340)"><use fill="#fff" xlink:href="#ic2ka"/>
	</g>
</svg>