<svg width="54" height="54" viewBox="0 0 54 54" fill="none" xmlns="http://www.w3.org/2000/svg">
<path fill-rule="evenodd" clip-rule="evenodd" d="M19.3376 1.12935C21.7725 0.409432 24.235 0.0288371 26.6654 0.00132363C26.7179 -0.000960659 26.7693 0.000169072 26.8213 0.00131117C26.8736 0.00246158 26.9265 0.00362453 26.9818 0.00132363H27.0001H27.0689H27.0735C27.8163 0.00590882 28.5638 0.0334223 29.3021 0.0976185C29.422 0.10805 29.5405 0.124414 29.6592 0.140807C29.7492 0.153237 29.8393 0.165684 29.9303 0.175573C30.7419 0.267282 31.549 0.395676 32.3469 0.556167C32.4019 0.567633 32.457 0.577951 32.512 0.58827C32.567 0.598586 32.622 0.608902 32.6771 0.620364C33.0118 0.693732 33.342 0.771685 33.6721 0.854225C33.9333 0.922963 34.19 0.996282 34.4466 1.0696L34.4466 1.06961L34.4467 1.06962L34.4467 1.06963L34.4467 1.06964L34.4468 1.06965L34.4468 1.06966L34.4468 1.06967L34.4469 1.06968L34.4469 1.06969L34.4469 1.0697L34.4471 1.06974C34.4722 1.0766 34.4962 1.08345 34.5202 1.09031L34.5205 1.09038L34.5207 1.09044C34.5447 1.0973 34.5687 1.10416 34.5938 1.11101H34.6534C34.8965 1.1156 35.1303 1.19355 35.3229 1.34029C35.339 1.34487 35.3562 1.34945 35.3734 1.35404C35.3906 1.35862 35.4078 1.36321 35.4238 1.3678C35.8182 1.49619 36.2125 1.63376 36.5977 1.78049C36.7537 1.84164 36.9055 1.90279 37.0574 1.96394C37.1333 1.9945 37.2092 2.02506 37.2856 2.05562C37.5882 2.18401 37.8863 2.31699 38.1843 2.44997C38.3063 2.5069 38.4299 2.56222 38.5541 2.61784L38.5544 2.61793C38.6402 2.65636 38.7264 2.69493 38.8126 2.73427L38.8586 2.7594L38.8587 2.75943L38.8587 2.75945C38.9014 2.78289 38.9428 2.80569 38.9868 2.82598C39.3582 3.01399 39.7251 3.20658 40.0874 3.40375C40.3304 3.54132 40.5734 3.68347 40.8119 3.82562C41.0503 3.96777 41.2796 4.10992 41.5089 4.25665C42.0546 4.60515 42.5865 4.97199 43.1047 5.35717C43.1459 5.38468 43.1872 5.4122 43.2285 5.44429L43.2376 5.44888C43.5449 5.68274 43.8429 5.92119 44.141 6.16422L44.4024 6.38432C45.3333 7.16844 46.2137 8.01217 47.0345 8.92468C47.5985 9.54372 48.135 10.1994 48.644 10.8781C48.6532 10.8919 48.6624 10.9056 48.6761 10.9148C48.6761 10.9156 48.6763 10.9167 48.6766 10.9178L48.6779 10.9225L48.6784 10.924C48.6796 10.9274 48.6807 10.9308 48.6807 10.9331C48.741 11.0101 48.7963 11.0895 48.8521 11.1695C48.8728 11.1992 48.8935 11.2289 48.9146 11.2587C49.0522 11.3779 49.1622 11.5292 49.231 11.7035C49.2723 11.7631 49.3181 11.8273 49.364 11.8915C49.4015 11.9467 49.4373 12.002 49.4728 12.0569C49.5199 12.1295 49.5666 12.2016 49.6162 12.2721C49.9142 12.7398 50.2077 13.2121 50.4783 13.6982C50.625 13.9458 50.7626 14.198 50.9001 14.4548L50.9003 14.4551L50.9004 14.4554L50.9005 14.4555L50.9006 14.4556C51.0151 14.6754 51.1296 14.8953 51.2395 15.1197C51.4825 15.6149 51.7118 16.1147 51.9273 16.6237C51.9683 16.724 52.0048 16.8242 52.0412 16.9245L52.0413 16.9247L52.0414 16.9249L52.0415 16.9251L52.0416 16.9253L52.0416 16.9255L52.0417 16.9257L52.0418 16.9259L52.0419 16.9261L52.042 16.9264C52.2529 17.4399 52.4409 17.9627 52.6197 18.49C52.63 18.5234 52.6418 18.554 52.6533 18.5841L52.6534 18.5843C52.6624 18.6078 52.6713 18.631 52.6794 18.6551C52.6839 18.678 52.6885 18.6963 52.6977 18.7193C53.4727 21.1267 53.9083 23.6854 53.9771 26.3404C54 26.4687 54.0046 26.6063 53.9862 26.7393C53.9871 26.7557 53.9881 26.772 53.9892 26.7884L53.9918 26.8264C53.9959 26.8845 54 26.9426 54 27.0007C54 32.8151 52.1474 38.203 49.0109 42.6097C49.0095 42.6117 49.0083 42.6138 49.0071 42.616L49.0032 42.6238L49.0008 42.629L48.9966 42.6378C48.9941 42.643 48.9913 42.6476 48.988 42.6509L48.9778 42.664C48.9693 42.6748 48.9626 42.6833 48.9559 42.6968L48.9558 42.6968C48.8779 42.7977 48.7999 42.8986 48.722 43.004C48.6578 43.1507 48.5569 43.2837 48.4331 43.3938L48.3231 43.5451C48.2451 43.646 48.1626 43.7514 48.08 43.8523L48.0796 43.8528C47.9238 44.0452 47.7681 44.2377 47.6077 44.4255C47.4827 44.5749 47.355 44.7189 47.2267 44.8638C47.1856 44.9101 47.1444 44.9566 47.1033 45.0033C47.0521 45.0635 46.9989 45.1217 46.9464 45.1793L46.946 45.1798L46.9439 45.1821L46.9129 45.216L46.8941 45.2368L46.8648 45.2692C46.631 45.5214 46.3971 45.7691 46.1541 46.0121C46.1311 46.035 46.1082 46.0591 46.0853 46.0832C46.0624 46.1072 46.0394 46.1313 46.0165 46.1542C45.7368 46.434 45.4525 46.7045 45.159 46.9705C45.1569 46.9725 45.1548 46.9746 45.1527 46.9763L45.15 46.9782C45.1484 46.9791 45.1468 46.9796 45.1452 46.9796C45.1452 46.9809 45.1445 46.9822 45.1435 46.9835L45.1407 46.9865L45.1387 46.9885L45.1377 46.9897C45.1367 46.9909 45.1361 46.9922 45.1361 46.9934C44.8197 47.2777 44.4987 47.5574 44.1685 47.8325C43.8338 48.1031 43.4944 48.3736 43.1459 48.6304C42.802 48.8918 42.4489 49.144 42.0913 49.3824C41.7473 49.6163 41.3988 49.841 41.0457 50.0565C41.0278 50.0672 41.0099 50.0773 40.9923 50.0872L40.9923 50.0872C40.9647 50.1026 40.9379 50.1177 40.9128 50.1344C40.5918 50.327 40.2662 50.515 39.9314 50.6985L39.7251 50.8085C39.4362 50.9598 39.1473 51.1111 38.8538 51.2533C38.7287 51.3159 38.6009 51.3758 38.4745 51.4351L38.354 51.4917C38.1431 51.5926 37.9321 51.6889 37.7212 51.7806C37.4415 51.8998 37.1572 52.0145 36.8729 52.1245C36.7721 52.1658 36.6668 52.207 36.5615 52.2482L36.561 52.2483C36.4308 52.2972 36.296 52.3437 36.1631 52.3895L36.1616 52.3901L36.1592 52.3909L36.0812 52.4178L36.0016 52.4455C35.8457 52.5464 35.6669 52.6106 35.488 52.6289L35.4478 52.6438L35.4477 52.6438L35.4473 52.644C35.4123 52.657 35.3791 52.6694 35.3459 52.6794C35.3184 52.6885 35.2954 52.6931 35.2725 52.6977C34.8781 52.8261 34.4838 52.9453 34.0802 53.0508L34.0802 53.0508C34.0573 53.06 34.0344 53.0692 34.0115 53.0737C34.0092 53.0737 34.0058 53.0749 34.0024 53.076L34.0023 53.076C33.9988 53.0772 33.9954 53.0783 33.9931 53.0783C33.6622 53.1686 33.3232 53.2467 32.9874 53.3242L32.9872 53.3242L32.9201 53.3397C32.8601 53.3527 32.8001 53.3673 32.741 53.3816C32.6961 53.3924 32.6518 53.4032 32.6083 53.4131C32.3241 53.4726 32.0399 53.5231 31.7557 53.5735L31.7554 53.5736C31.5811 53.6056 31.4023 53.6377 31.2234 53.6698C31.0583 53.6928 30.8887 53.7157 30.719 53.7386L30.7187 53.7387C30.4115 53.7799 30.1044 53.8212 29.7927 53.8533C29.7377 53.8624 29.6781 53.867 29.6185 53.8716C29.2195 53.9129 28.816 53.9404 28.4171 53.9633C28.3941 53.9656 28.37 53.9656 28.3454 53.9656C28.3208 53.9656 28.2955 53.9656 28.2703 53.9679C27.8622 53.9862 27.4541 53.9954 27.0506 54H27.0001C26.9772 54 26.9531 53.9989 26.929 53.9977C26.905 53.9966 26.8809 53.9954 26.858 53.9954C26.4819 53.9954 26.1059 53.9862 25.7299 53.9679C25.6339 53.9648 25.5358 53.9575 25.4385 53.9503C25.3917 53.9468 25.345 53.9434 25.2989 53.9404C25.0146 53.922 24.7302 53.9037 24.4505 53.8762C24.3042 53.8635 24.1578 53.8463 24.013 53.8294C23.9491 53.8219 23.8855 53.8144 23.8223 53.8074C23.7496 53.7979 23.6764 53.789 23.603 53.78L23.6022 53.7799L23.6017 53.7799C23.4625 53.7629 23.3227 53.7458 23.1849 53.7249C22.8777 53.6836 22.575 53.6332 22.2724 53.5781C22.2288 53.5713 22.1864 53.5632 22.144 53.5552C22.1016 53.5472 22.0591 53.5392 22.0156 53.5323C21.6396 53.4589 21.259 53.381 20.8875 53.2984L20.8618 53.2918L20.8348 53.2847L20.8093 53.2779L20.7821 53.2709C20.3739 53.1746 19.9704 53.0691 19.5669 52.9545C19.223 52.8536 18.8836 52.7436 18.5443 52.6289C18.3425 52.6152 18.1545 52.551 17.9894 52.4409C16.8751 52.0466 15.7884 51.5835 14.7474 51.0469C14.3852 50.8681 14.0321 50.6755 13.6836 50.4783C13.624 50.4417 13.5689 50.4096 13.5093 50.3775C13.2204 50.2124 12.9361 50.0427 12.6564 49.8639C12.5234 49.7814 12.3905 49.6942 12.2575 49.6071C12.0603 49.4787 11.8631 49.3457 11.6659 49.2128C11.4779 49.0844 11.2945 48.9514 11.1157 48.8184C10.9598 48.7084 10.8038 48.5937 10.6571 48.4791C10.437 48.314 10.2169 48.1397 10.0014 47.9655C9.95321 47.9242 9.90392 47.8841 9.85462 47.844C9.80533 47.8039 9.75604 47.7637 9.70789 47.7225C9.44651 47.5024 9.18513 47.2777 8.93293 47.0484C8.88711 47.0118 8.84129 46.9705 8.79547 46.9293L8.79536 46.9292C8.4973 46.6541 8.20382 46.3743 7.91493 46.09C7.30504 45.4802 6.72268 44.8382 6.17241 44.1687C5.96149 43.9165 5.76434 43.6598 5.56718 43.403L5.56716 43.403L5.56711 43.4029C5.44789 43.2975 5.35159 43.1691 5.2828 43.0269H5.27822C5.05353 42.7197 4.82883 42.4079 4.61331 42.0915C4.3932 41.7568 4.17768 41.4266 3.96674 41.0827C3.94382 41.046 3.92204 41.0093 3.90026 40.9727C3.87848 40.936 3.85669 40.8993 3.83376 40.8626C3.65951 40.5645 3.48526 40.2619 3.31559 39.9547C3.28507 39.8997 3.25454 39.8407 3.22402 39.7817L3.22399 39.7817L3.22389 39.7814C3.2086 39.7519 3.19331 39.7223 3.17802 39.6933C3.03587 39.4319 2.8983 39.166 2.76532 38.8954C2.69033 38.7454 2.61998 38.5932 2.54932 38.4402L2.54931 38.4402L2.54929 38.4401L2.54927 38.4401C2.52057 38.3779 2.49181 38.3157 2.46267 38.2534C2.4415 38.2071 2.41995 38.1608 2.39835 38.1144L2.39832 38.1143C2.34506 37.9999 2.29149 37.8848 2.24256 37.7674C2.10958 37.4647 1.98577 37.1575 1.86196 36.8503C1.82986 36.7586 1.79318 36.6669 1.75649 36.5752C1.61893 36.2175 1.49512 35.8552 1.37589 35.493C1.35755 35.4425 1.33921 35.3921 1.32086 35.3462L1.31892 35.3383C1.3149 35.3217 1.31041 35.303 1.30252 35.2912C1.17871 34.906 1.06407 34.5163 0.958603 34.1219L0.917333 33.9844C0.834793 33.6634 0.756837 33.3378 0.678883 33.0122C0.662835 32.9389 0.645641 32.8655 0.628448 32.7922C0.61125 32.7188 0.594052 32.6454 0.578 32.572C0.532144 32.3336 0.486289 32.0951 0.445018 31.8567C0.42822 31.7601 0.41046 31.6635 0.392619 31.5665L0.392615 31.5665C0.371496 31.4516 0.350264 31.3361 0.330379 31.2193C0.307451 31.0542 0.284523 30.8892 0.261595 30.7195L0.261592 30.7195C0.220323 30.4122 0.179054 30.105 0.146955 29.7932C0.142275 29.7651 0.139983 29.7371 0.137642 29.7084C0.135396 29.6808 0.133104 29.6527 0.128613 29.6236C0.0919285 29.2246 0.0598292 28.8211 0.0369016 28.4176C0.0323163 28.3717 0.0323163 28.3213 0.0323163 28.2754C0.013974 27.8673 0.00480221 27.4546 0.000216921 27.0511V27.0007C0.000216921 26.9783 0.00130928 26.9559 0.00242766 26.933C0.00360062 26.909 0.00480221 26.8843 0.00480221 26.8585C0.00480221 26.8127 0.00480221 26.7668 0.00938867 26.7209C-0.00436836 26.6109 -0.00436836 26.4963 0.0185592 26.3862C0.0185592 26.1615 0.0231445 25.9414 0.0323163 25.7167C0.0369004 25.6021 0.0460686 25.4875 0.0552369 25.3729L0.0552439 25.3728L0.0562814 25.3552C0.0742827 25.0491 0.0925337 24.7387 0.124028 24.4328C0.14237 24.231 0.165298 24.0339 0.192812 23.8367C0.215739 23.6166 0.243252 23.3965 0.275352 23.181C0.312036 22.9333 0.348721 22.6903 0.394577 22.4473C0.422086 22.2685 0.454181 22.0942 0.486275 21.92L0.486289 21.9199C0.550486 21.5898 0.61927 21.2642 0.69264 20.9432L0.73391 20.7644C0.830206 20.3609 0.935675 19.9619 1.04573 19.5676C1.16954 19.1503 1.29794 18.7376 1.44009 18.3249C1.57766 17.9168 1.72439 17.5133 1.88489 17.1098C2.04539 16.7062 2.21047 16.3073 2.3893 15.9175C2.5498 15.5599 2.71947 15.2068 2.8983 14.8583C2.93499 14.7758 2.97626 14.6978 3.01753 14.6199C3.16427 14.3356 3.31559 14.0558 3.4715 13.7807C3.50354 13.7235 3.53672 13.6651 3.5699 13.6068L3.56992 13.6068L3.56993 13.6067L3.56994 13.6067L3.56996 13.6067L3.56997 13.6067L3.56998 13.6067L3.56999 13.6066L3.57001 13.6066L3.57002 13.6066L3.57003 13.6066C3.6033 13.5481 3.63656 13.4896 3.66868 13.4322C3.80163 13.2076 3.93917 12.9829 4.07671 12.7583L4.0768 12.7581C4.20059 12.5564 4.32897 12.3593 4.45735 12.1621L4.4574 12.162C4.49638 12.1047 4.53421 12.0474 4.57204 11.9901C4.60987 11.9328 4.6477 11.8754 4.68668 11.8181C4.70041 11.7998 4.71413 11.7804 4.72786 11.7609L4.72787 11.7609L4.72788 11.7609L4.72789 11.7609L4.7279 11.7609L4.72791 11.7609L4.72792 11.7608L4.72793 11.7608L4.72794 11.7608L4.72795 11.7608C4.74171 11.7413 4.75546 11.7218 4.76922 11.7035C4.838 11.5338 4.94347 11.3825 5.08104 11.2587C5.12101 11.2054 5.15943 11.1521 5.1972 11.0997C5.22443 11.0619 5.25132 11.0246 5.27822 10.9881C5.31032 10.9423 5.34242 10.901 5.37452 10.8598C8.59818 6.52647 13.1379 3.11487 18.6544 1.32194C18.6842 1.31277 18.714 1.30475 18.7438 1.29672C18.7736 1.2887 18.8034 1.28067 18.8332 1.2715C18.9891 1.18438 19.1588 1.13852 19.3376 1.12935ZM29.4213 2.46832C28.6234 2.39036 27.8163 2.34909 27.0001 2.34909C26.1518 2.34909 25.3126 2.39036 24.4872 2.47749C24.4857 2.47749 24.4842 2.47698 24.4826 2.47647C24.4796 2.47545 24.4765 2.47443 24.4735 2.47749C24.1387 2.50958 23.7994 2.55544 23.4646 2.60588C23.4162 2.61314 23.3665 2.61912 23.3163 2.62518L23.3162 2.62518L23.3162 2.62518L23.3162 2.62518L23.3162 2.62519L23.3162 2.62519L23.3162 2.62519L23.3161 2.62519L23.3161 2.62519L23.3161 2.6252L23.3161 2.6252C23.2711 2.63061 23.2257 2.63608 23.1803 2.64256C23.0018 2.67461 22.8278 2.70666 22.6538 2.73871L22.653 2.73886C22.607 2.74612 22.5609 2.75595 22.5156 2.76563C22.4751 2.77428 22.4351 2.78281 22.3962 2.7893L27.0001 5.65981L31.604 2.7893C31.5582 2.78097 31.5124 2.7717 31.4662 2.76234L31.4662 2.76234L31.4662 2.76233L31.4661 2.76233L31.4661 2.76233L31.4661 2.76232C31.4105 2.75107 31.3544 2.7397 31.2968 2.72969C31.2372 2.71899 31.1776 2.70778 31.118 2.69658C30.9988 2.67416 30.8795 2.65174 30.7603 2.63339C30.7351 2.62881 30.7098 2.62651 30.6846 2.62422C30.6594 2.62193 30.6342 2.61964 30.609 2.61505C30.2146 2.55544 29.8202 2.50958 29.4213 2.46832ZM19.2597 3.59634L25.8583 7.71411V14.6428L15.6783 22.0346L8.99254 19.884L7.13996 12.428L7.23155 12.3016C7.40756 12.0585 7.58454 11.8141 7.76819 11.5797C7.98758 11.3084 8.22084 11.0476 8.4529 10.7881L8.55691 10.6717C8.81829 10.3737 9.08425 10.071 9.36397 9.78216C9.58686 9.55537 9.81976 9.33857 10.0541 9.12041L10.1756 9.00722C10.2329 8.95372 10.2901 8.90009 10.3473 8.84647L10.3474 8.84644L10.3474 8.84642L10.3474 8.8464L10.3474 8.84637L10.3475 8.84635L10.3475 8.84633L10.3475 8.84631L10.3475 8.84628L10.3476 8.84626C10.6334 8.57821 10.9193 8.31015 11.2211 8.05802C11.2532 8.03052 11.2853 8.00416 11.3174 7.97781L11.3174 7.97777C11.3495 7.95141 11.3816 7.92504 11.4137 7.89753C11.9548 7.45732 12.5188 7.03546 13.0966 6.64111C13.1402 6.61129 13.1826 6.58263 13.2251 6.55396C13.2675 6.52531 13.3099 6.49666 13.3534 6.46686C13.9083 6.10002 14.4861 5.75152 15.073 5.43054C15.1683 5.37471 15.2658 5.32358 15.3641 5.27211L15.3641 5.27209L15.3642 5.27207L15.3642 5.27205L15.3643 5.27203L15.3643 5.27201C15.4032 5.25164 15.4422 5.23122 15.4811 5.21043C16.0268 4.92155 16.5863 4.65101 17.1549 4.40339C17.8381 4.10533 18.5397 3.83479 19.2597 3.59634ZM34.9568 3.67067L34.9565 3.67057C34.8845 3.64589 34.8126 3.6212 34.7406 3.59634L28.2061 7.67743V14.6886L38.3219 22.0346L44.9939 19.9436L46.8603 12.428L46.7471 12.2703L46.747 12.2702L46.747 12.2702L46.747 12.2701C46.5147 11.946 46.2821 11.6214 46.0257 11.3137V11.3091C45.5625 10.7497 45.0673 10.2132 44.5537 9.69963C44.4391 9.5804 44.3198 9.46118 44.2006 9.34654C43.7971 8.95678 43.3798 8.58077 42.9533 8.21851C42.9041 8.17653 42.8554 8.13455 42.8068 8.09271L42.8066 8.09257L42.8064 8.09242L42.8063 8.09227C42.7011 8.00174 42.5967 7.91188 42.4902 7.82416C41.9674 7.4023 41.4263 6.99419 40.8669 6.61359C40.8531 6.60442 40.8405 6.59525 40.8279 6.58608C40.8153 6.57691 40.8027 6.56774 40.7889 6.55857C40.7844 6.55398 40.7798 6.5494 40.7752 6.5494C40.1836 6.15046 39.5738 5.78821 38.9455 5.43971C38.8231 5.36931 38.6966 5.30504 38.5687 5.24008L38.5687 5.24006C38.505 5.20771 38.441 5.17519 38.3769 5.14165C37.9275 4.90779 37.469 4.68769 37.0013 4.47676C36.9313 4.44591 36.861 4.41445 36.7903 4.38286C36.588 4.29233 36.3832 4.20067 36.1759 4.11909C36.1068 4.0895 36.0378 4.06227 35.9704 4.03571L35.9704 4.03569L35.8915 4.00445C35.5822 3.88518 35.2698 3.77802 34.9568 3.67067ZM48.6028 15.1472C48.6853 15.2939 48.7679 15.4407 48.8458 15.5874C48.9936 15.8722 49.1301 16.1656 49.2664 16.4585L49.2664 16.4585L49.2665 16.4585L49.2665 16.4586L49.2665 16.4586L49.2665 16.4586L49.2665 16.4587L49.2665 16.4587L49.2669 16.4595C49.3038 16.5388 49.3407 16.618 49.3777 16.6971C49.7767 17.5637 50.1435 18.4533 50.4462 19.3842C50.7076 20.1958 50.9277 21.0074 51.1019 21.8237C51.1441 22.0073 51.1783 22.193 51.2124 22.378L51.2124 22.3781L51.2124 22.3781L51.2125 22.3781L51.2125 22.3782L51.2125 22.3782L51.2125 22.3783L51.2125 22.3783C51.2303 22.475 51.2481 22.5714 51.267 22.6674C51.2801 22.7484 51.2954 22.8294 51.3107 22.9109L51.3107 22.9112C51.3275 23.0003 51.3443 23.09 51.3587 23.181C51.3655 23.2288 51.3712 23.2755 51.3769 23.3222L51.3769 23.3223L51.377 23.3224L51.377 23.3225L51.377 23.3226L51.377 23.3231L51.3771 23.3236L51.3771 23.3237L51.3771 23.3238L51.3772 23.3239C51.3829 23.3706 51.3885 23.4174 51.3954 23.4653C51.4104 23.5582 51.4214 23.6531 51.4324 23.7473L51.4324 23.7475L51.4325 23.7476L51.4325 23.7478C51.4383 23.7976 51.4441 23.8472 51.4504 23.8963L47.2959 20.4021L48.6028 15.1472ZM6.70433 20.4067L5.40203 15.1564C5.38052 15.193 5.35866 15.2294 5.33684 15.2657C5.27957 15.3609 5.22256 15.4557 5.17275 15.5553C5.00768 15.8671 4.86094 16.1881 4.71421 16.509L4.71419 16.5091L4.67444 16.5927L4.67442 16.5927C4.46767 17.0275 4.26238 17.4592 4.08138 17.9031C4.06763 17.9443 4.05387 17.9856 4.03553 18.0269C3.77415 18.7009 3.54028 19.3842 3.33852 20.0858L3.33851 20.0858L3.3385 20.0858C3.311 20.1729 3.28349 20.26 3.26056 20.3471C3.07714 20.9983 2.92582 21.6586 2.79742 22.3235C2.76532 22.4794 2.73781 22.6353 2.71488 22.7958C2.66696 23.0627 2.63437 23.3348 2.60186 23.6063C2.59081 23.6985 2.57977 23.7907 2.56814 23.8825L6.70433 20.4067ZM27.0001 16.7108L36.7261 23.7817L33.0164 35.2178H20.9838L17.2741 23.7817L27.0001 16.7108ZM14.963 24.2677L8.3047 22.1263L2.35721 27.1291C2.35721 27.8857 2.39389 28.6331 2.46267 29.3714C2.46726 29.4401 2.47184 29.5043 2.48102 29.5731C2.51311 29.8666 2.55438 30.1555 2.59566 30.4444C2.60941 30.5728 2.62317 30.7011 2.64151 30.8295C2.65527 30.9144 2.67132 30.998 2.68736 31.0817C2.70341 31.1654 2.71947 31.2491 2.73322 31.3339C2.7521 31.4299 2.76989 31.5264 2.78772 31.623C2.82186 31.8081 2.85612 31.9939 2.8983 32.1777C3.07256 32.9939 3.29266 33.8055 3.55404 34.6172C3.80625 35.3875 4.09055 36.1349 4.40696 36.8595C4.65 37.4189 4.91596 37.9646 5.20026 38.5011L5.26033 38.6147L5.2604 38.6149L5.26049 38.615C5.31862 38.7253 5.3774 38.8369 5.43871 38.9459C5.75512 39.5236 6.09904 40.0876 6.4613 40.6333L6.46156 40.6337L6.46168 40.6339L6.46176 40.634C6.5258 40.7301 6.58984 40.8261 6.64931 40.9176C6.70845 41.0039 6.77289 41.0875 6.83693 41.1705C6.89206 41.2421 6.9469 41.3132 6.99781 41.3853L14.6695 41.9264L18.8332 36.19L14.963 24.2677ZM45.746 22.1676L51.6476 27.1291C51.643 27.8811 51.6063 28.6239 51.5375 29.3622C51.4779 29.9812 51.3954 30.5957 51.2853 31.2056C51.2624 31.366 51.2349 31.5219 51.2074 31.6779C51.0744 32.3428 50.9231 33.0031 50.7397 33.6542C50.7167 33.7413 50.6892 33.833 50.6617 33.9202C50.4645 34.5988 50.2398 35.2683 49.983 35.9194C49.9555 35.9973 49.9235 36.0752 49.8914 36.1531L49.8913 36.1533C49.7489 36.5131 49.582 36.8667 49.4156 37.2192L49.4155 37.2195L49.3614 37.3342L49.3044 37.4556L49.2258 37.6248L49.2258 37.6248L49.2258 37.6249L49.2257 37.6249C49.0969 37.903 48.9685 38.18 48.8275 38.4506C48.6715 38.7477 48.5005 39.0357 48.3291 39.3244L48.3273 39.3274L48.2953 39.3814C48.2663 39.4303 48.2373 39.4792 48.2084 39.5282C48.0158 39.8584 47.8232 40.1885 47.6123 40.5141C47.4151 40.8076 47.2042 41.0964 46.9932 41.3853L39.2711 41.931L35.167 36.1808L39.0373 24.2723L45.746 22.1676ZM33.2732 37.5656H20.7362L16.5863 43.2746L19.4981 50.4646C19.5723 50.4893 19.6459 50.5161 19.7193 50.5429C19.8363 50.5855 19.9529 50.6279 20.0713 50.6618C20.1192 50.6754 20.1659 50.688 20.2126 50.7005L20.2129 50.7006L20.2135 50.7008C20.2605 50.7134 20.3075 50.726 20.3556 50.7397C21.0022 50.9231 21.6579 51.0745 22.3228 51.2074L22.3232 51.2075C22.479 51.235 22.6348 51.2625 22.7905 51.2854C23.4004 51.3954 24.0195 51.478 24.6385 51.5376C25.4181 51.611 26.2022 51.6522 27.0001 51.6522C27.8072 51.6522 28.6005 51.611 29.3846 51.5376C29.4488 51.5284 29.5084 51.5238 29.568 51.5193C29.8751 51.4872 30.1777 51.4459 30.4802 51.4047L30.4806 51.4046C30.5952 51.3863 30.7053 51.3725 30.8199 51.3588L31.3702 51.2625H31.3702C31.6407 51.212 31.9113 51.1616 32.1772 51.102C32.9522 50.9369 33.7226 50.726 34.4929 50.4829L37.3864 43.3342L33.2732 37.5656ZM9.06132 43.8844L14.454 44.265L16.4854 49.277C16.389 49.2309 16.2916 49.1858 16.1941 49.1405L16.1938 49.1404C15.9807 49.0415 15.7667 48.9422 15.5591 48.8322C15.2547 48.6725 14.9593 48.4979 14.6631 48.3228L14.6629 48.3227C14.5934 48.2815 14.5237 48.2404 14.454 48.1994C14.3646 48.1457 14.2752 48.0928 14.186 48.04L14.1858 48.0399C13.9548 47.9031 13.7251 47.7671 13.5002 47.6216C13.1697 47.4057 12.8477 47.1686 12.5301 46.9348L12.4913 46.9063C12.4186 46.8531 12.3459 46.8004 12.2733 46.7478L12.2731 46.7477C12.0391 46.5782 11.8063 46.4096 11.5788 46.2276C11.3316 46.0313 11.0931 45.8206 10.8563 45.6115C10.7944 45.5568 10.7326 45.5022 10.6709 45.4481L10.5492 45.3397L10.549 45.3395C10.2907 45.1095 10.0308 44.8781 9.78126 44.6364C9.59554 44.4542 9.41756 44.2642 9.23959 44.0741C9.18026 44.0108 9.12093 43.9475 9.06132 43.8844ZM44.8221 44.0153C44.8609 43.9712 44.8996 43.9272 44.9389 43.8844L39.5463 44.265L37.5148 49.277C37.6105 49.231 37.7065 49.1858 37.8024 49.1407C38.0515 49.0234 38.3004 48.9062 38.542 48.7771C38.5773 48.7588 38.6126 48.7409 38.6478 48.723C38.736 48.6782 38.8236 48.6337 38.9089 48.5845C39.5187 48.2498 40.1103 47.8921 40.6835 47.507C40.7475 47.4658 40.8161 47.4201 40.8847 47.3743L40.8852 47.374C41.4722 46.9705 42.0408 46.5486 42.5865 46.1038C42.6186 46.0763 42.6507 46.0499 42.6828 46.0235C42.7149 45.9972 42.747 45.9708 42.7791 45.9433C43.0835 45.6883 43.3753 45.4144 43.665 45.1426C43.7244 45.0868 43.7836 45.0312 43.8429 44.9758C43.9217 44.9011 44.0009 44.8274 44.08 44.7537C44.2634 44.5828 44.4463 44.4123 44.6225 44.2329C44.6915 44.1639 44.7569 44.0895 44.8221 44.0153Z" fill="white"/>
</svg>
