<svg width="1440" height="837" viewBox="0 0 1440 837" fill="none" xmlns="http://www.w3.org/2000/svg">
	<path d="M1440 718.468C1440 718.468 1398.41 796.042 1324.37 796.042C1250.32 796.042 1236.75 674.023 1176.63 674.023C1116.51 674.023 1070.95 735.299 998.688 735.299C926.426 735.299 822.414 688.197 754.434 688.197C686.453 688.197 611.315 765.095 512.152 761.863C461.94 760.227 367.645 720.579 286.23 737.299C206.861 753.6 209.082 836.273 110.707 836.273C53.6289 836.273 -3 740.299 -3 740.299V0H1440V718.468Z" fill="url(#paint0_linear)"/>
	<defs>
		<linearGradient id="paint0_linear" x1="1488.81" y1="538.332" x2="942.092" y2="-73.6534" gradientUnits="userSpaceOnUse">
			<stop stop-color="#5DD2F2"/>
			<stop offset="1" stop-color="#46BCEA"/>
		</linearGradient>
	</defs>
	<path d="M1443 706.44C1443 706.44 1401.41 782.716 1327.37 782.716C1253.32 782.716 1235.85 671.759 1175.73 671.759C1115.61 671.759 1073.95 727.906 1001.69 727.906C929.426 727.906 824.137 686.14 756.156 686.14C688.176 686.14 613.12 762.133 513.957 758.955C463.745 757.346 363.625 717.281 282.211 733.722C202.841 749.75 212.082 822.273 113.707 822.273C56.6289 822.273 0 727.906 0 727.906V0H1443V706.44Z" fill="#F8F8F8"/>
</svg>
