<svg width="48" height="52" viewBox="0 0 48 52" fill="none" xmlns="http://www.w3.org/2000/svg">
	<path fill-rule="evenodd" clip-rule="evenodd" d="M22.5 0.0012075C21.7366 -0.0208855 21 0.261909 20.3929 0.708193C19.7857 1.15448 19.2411 1.74216 18.7143 2.47566C18.3125 3.03683 17.9152 3.27543 17.2143 3.43009C16.5653 3.5733 15.6789 3.57253 14.6438 3.57163L14.3929 3.57148C13.1161 3.57148 12.192 3.68195 11.4286 3.96033C10.817 4.18126 10.2589 4.61429 9.96429 5.1622C9.95089 5.19755 9.9375 5.2329 9.92857 5.26825C9.92393 5.27744 9.91929 5.28557 9.91483 5.29337C9.90643 5.30808 9.89869 5.32163 9.89286 5.33895C9.87946 5.36104 9.86607 5.38755 9.85714 5.40965C9.84824 5.43431 9.83721 5.45757 9.82632 5.48055L9.82631 5.48056C9.80989 5.5152 9.79377 5.5492 9.78571 5.58639C9.60268 6.3464 9.86161 6.98711 10.1786 7.49525C10.4911 7.99456 10.9062 8.42317 11.3214 8.80318C11.3926 8.87357 11.4756 8.95249 11.5685 9.0409L11.5685 9.0409C12.1 9.54624 12.9574 10.3615 13.7857 11.6665C14.6652 13.0495 15.3036 14.9319 15.25 17.181C11.4643 18.3254 7.84822 21.0517 5.07143 24.5336C2.05804 28.3116 0 32.9202 0 37.4007C0 42.9285 1.75 46.8655 5.71429 49.1014C9.67857 51.3372 15.5357 52 24 52C32.4643 52 38.3214 51.3372 42.2857 49.1014C46.25 46.8655 48 42.9285 48 37.4007C48 28.8462 41.2277 21.0164 33.4286 17.6052C33.9777 17.5345 34.5446 17.4814 35.1429 17.4991C37.067 17.5477 39.1205 18.1221 40.8929 19.9736C41.1607 20.3138 41.6027 20.4773 42.0312 20.3889C42.4554 20.3005 42.7991 19.978 42.9062 19.5582C43.0134 19.1428 42.8705 18.6966 42.5357 18.4182C40.4643 16.2486 37.9554 15.4268 35.7143 15.2721C37.5893 14.4944 39.7455 14.2602 42.3214 15.6609C42.683 15.9128 43.1562 15.9349 43.5446 15.7228C43.9286 15.5063 44.1518 15.0909 44.1205 14.6535C44.0893 14.216 43.8036 13.8405 43.3929 13.6814C41.7857 12.8065 40.2589 12.453 38.8214 12.4442C35.5848 12.4265 32.8616 14.1321 31.0714 15.3428C30.8125 11.2202 33.1696 7.9327 33.4643 7.56595L33.5 7.5306L33.5357 7.45991C33.5761 7.39704 33.6188 7.33147 33.6632 7.26331L33.6652 7.26021L33.6659 7.25919C34.0579 6.65716 34.5813 5.85341 34.8214 4.91476C34.9554 4.39336 35.0312 3.70405 34.5714 3.0766C34.1116 2.44915 33.3348 2.22821 32.5714 2.22821C31.5785 2.22821 30.6524 2.46088 29.8337 2.66659C29.4745 2.75684 29.1359 2.84191 28.8214 2.89985C27.7902 3.08985 27.2679 3.05892 26.75 2.54636V2.58171C26.7455 2.57729 26.7388 2.5795 26.7321 2.58171C26.7254 2.58391 26.7188 2.58612 26.7143 2.58171C25.2277 1.05285 24.0223 0.0453947 22.5 0.0012075ZM22.4286 2.26356C22.8438 2.27682 23.7455 2.73636 25.1071 4.13707H25.1429V4.17242C26.3393 5.35662 27.9687 5.32569 29.25 5.0915C29.6875 5.01168 30.115 4.91924 30.5218 4.83127C31.0157 4.72447 31.4791 4.62426 31.8929 4.56126L31.8954 4.57636L31.8974 4.58726C31.9088 4.64824 31.9124 4.6678 31.8214 4.80871C31.7188 4.96778 31.4821 5.23732 31.1071 5.55104C30.8297 5.78317 30.4838 6.03888 30.0912 6.32914C29.4225 6.82347 28.6183 7.418 27.7857 8.16689C27.2455 8.65736 26.6027 8.98876 26.1071 9.05062C25.6116 9.11248 25.3259 9.01527 25 8.62643H24.9643C24.3839 7.91061 23.8616 7.36711 23.25 7.00037C22.625 6.62478 21.8884 6.43478 21.2143 6.54082C20.0368 6.72403 19.2379 7.48491 18.3581 8.32298C18.2405 8.43493 18.1215 8.54826 18 8.66178H17.9643V8.62643C17.375 9.17435 16.6741 9.35551 15.6071 8.90923C14.7054 8.53364 13.5938 7.59247 12.5357 6.04593C12.9286 5.93989 13.5 5.83384 14.3929 5.83384C14.4971 5.83384 14.6009 5.83406 14.7046 5.83428C15.7373 5.83647 16.7405 5.8386 17.7143 5.62174C18.7857 5.38314 19.8304 4.80871 20.5714 3.78358H20.6071C21.0536 3.16055 21.442 2.73636 21.75 2.51101C22.058 2.28565 22.2232 2.25914 22.4286 2.26356ZM21.6025 8.79818L21.5714 8.80318C21.2857 8.84737 20.5536 9.33784 19.5357 10.2878C18.6562 11.1053 17.4464 11.4323 16.2143 11.313C17.0491 12.8595 17.7232 14.8391 17.6786 17.1456C19.3036 17.8835 23.5357 19.2268 28.8214 16.6861C28.3393 13.8758 28.9464 11.419 29.7143 9.58086C29.6575 9.63084 29.6017 9.67199 29.5459 9.71309L29.5459 9.71313L29.5458 9.71315C29.4833 9.75924 29.4208 9.80527 29.3571 9.86366C28.5223 10.6192 27.4955 11.1406 26.3929 11.2776C25.2902 11.4146 24.067 11.0434 23.25 10.0758H23.2143V10.0404C22.7187 9.42179 22.3393 9.0683 22.0714 8.90923C21.8235 8.76198 21.7286 8.77754 21.6025 8.79818ZM30 18.6303C37.9018 20.9191 45.7143 29.1997 45.7143 37.4007C45.7143 42.5043 44.442 45.319 41.1786 47.1572C37.9152 48.9953 32.3348 49.7376 24 49.7376C15.6652 49.7376 10.0848 48.9953 6.82143 47.1572C3.55804 45.319 2.28571 42.5043 2.28571 37.4007C2.28571 33.6228 4.09822 29.372 6.85714 25.9122C9.58036 22.501 13.2054 19.894 16.5714 19.0898C18.4866 19.9426 23.7723 21.688 30 18.6303ZM22.2857 25.9829V23.7206H24.3571V26.089C27.3304 26.6546 28.3571 28.7048 28.9286 30.9672H26.8571C26.5134 29.3853 25.4911 28.0332 23.3214 28.0332C20.2366 28.0332 19.8929 30.0614 19.8929 30.9672C19.8929 33.0228 21.7664 33.5075 23.8296 34.0413C23.9218 34.0651 24.0144 34.0891 24.1071 34.1133C26.8482 34.7937 29.6071 35.704 29.6071 39.0975C29.6071 43.1715 25.9554 44.3204 24.3571 44.4353V46.3441H22.2857V44.4353C20.5714 44.095 17.4866 43.0478 17.1429 38.638H19.2143C19.2143 39.9945 20.1205 42.491 23.3214 42.491C26.4062 42.491 27.2143 41.0417 27.2143 39.345C27.2143 37.0291 25.1328 36.5216 22.9076 35.9791C20.3522 35.356 17.6071 34.6868 17.6071 31.1793C17.6071 27.5604 20.5714 26.2083 22.2857 25.9829Z" fill="url(#paint0_linear)"/>
	<defs>
		<linearGradient id="paint0_linear" x1="-10.5" y1="18.6875" x2="27.7288" y2="67.7841" gradientUnits="userSpaceOnUse">
			<stop stop-color="#32B6E2"/>
			<stop offset="1" stop-color="#2DA1E1"/>
		</linearGradient>
	</defs>
</svg>
