<svg width="61" height="46" viewBox="0 0 61 46" fill="none" xmlns="http://www.w3.org/2000/svg">
	<path fill-rule="evenodd" clip-rule="evenodd" d="M30.9156 0.0895871L60.398 13.3916C60.6265 13.4946 60.8094 13.6787 60.9114 13.9087C61.1403 14.4245 60.9104 15.0297 60.398 15.2601L56.9322 16.8238V35.5075L58.4573 37.8005C58.7905 38.305 58.9674 38.8976 58.9655 39.5032V40.6921C58.9655 42.3874 57.6001 43.7617 55.9158 43.7617C54.2315 43.7617 52.866 42.3874 52.866 40.6921V39.506C52.8642 38.9004 53.041 38.3078 53.3743 37.8038L54.8994 35.5075V17.7405L50.8327 19.5753V37.8609C50.8327 38.1626 50.7001 38.4493 50.4707 38.6437C38.94 48.4521 22.0601 48.4521 10.5294 38.6437C10.3 38.4493 10.1673 38.1626 10.1673 37.8609V19.5753L0.602052 15.2601C0.373543 15.1576 0.190642 14.9735 0.0887202 14.7435C-0.140255 14.2273 0.0891855 13.6225 0.602052 13.3916L30.084 0.0895871C30.3488 -0.0298624 30.6513 -0.0298624 30.9156 0.0895871ZM55.9158 41.7123C56.4771 41.7123 56.9322 41.2542 56.9322 40.6893V39.5004C56.9327 39.2985 56.8731 39.1009 56.7614 38.9332L55.9158 37.6562L55.0697 38.9364C54.9585 39.1041 54.8989 39.3013 54.8989 39.5032V40.6893C54.8989 41.2542 55.3541 41.7123 55.9158 41.7123ZM48.7994 37.3798C38.153 46.1423 22.8471 46.1423 12.2007 37.3798V20.4962L30.084 28.5654C30.3488 28.6849 30.6513 28.6849 30.9156 28.5654L48.7994 20.493V37.3798ZM30.5815 13.3026L55.3382 15.3L57.4967 14.3261L30.5 2.14927L3.50333 14.3261L30.5 26.5029L51.4782 17.0449L30.4186 15.3491C29.8573 15.3042 29.4385 14.809 29.4836 14.2441C29.5283 13.6787 30.0197 13.2576 30.5815 13.3026Z" fill="url(#paint0_linear)"/>
	<defs>
		<linearGradient id="paint0_linear" x1="-12.8789" y1="12.4765" x2="7.98408" y2="63.4781" gradientUnits="userSpaceOnUse">
			<stop stop-color="#31B1E1"/>
			<stop offset="1" stop-color="#2EA2E1"/>
		</linearGradient>
	</defs>
</svg>
