<svg xmlns="http://www.w3.org/2000/svg" xmlns:xlink="http://www.w3.org/1999/xlink" width="17" height="16" viewBox="0 0 17 16"><defs><path id="iljza" d="M825.092 1127.001a7.956 7.956 0 0 0-7.684 5.475 8.01 8.01 0 0 0 .437 6.107 7.9 7.9 0 0 0 4.589 4.008c.828.277 1.669.409 2.495.409.645 0 1.28-.082 1.893-.234v-.788a7.076 7.076 0 0 1-4.149-.109 7.147 7.147 0 0 1-4.152-3.626 7.252 7.252 0 0 1-.396-5.526 7.195 7.195 0 0 1 6.816-4.955c.75 0 1.511.119 2.26.37a7.149 7.149 0 0 1 4.151 3.625c.233.47.41.957.536 1.454l-2.275-.945a.377.377 0 0 0-.495.206.383.383 0 0 0 .205.498l2.987 1.24a.377.377 0 0 0 .493-.207l1.168-2.862a.378.378 0 1 0-.7-.29l-.747 1.833a7.903 7.903 0 0 0-5.086-5.275 7.85 7.85 0 0 0-2.346-.408z"/></defs><g><g opacity=".26" transform="translate(-817 -1127)"><use xlink:href="#iljza"/></g></g></svg>