<svg width="18" height="11" viewBox="0 0 18 11" fill="none" xmlns="http://www.w3.org/2000/svg">
<path fill-rule="evenodd" clip-rule="evenodd" d="M8.41995 10.5686H9.43303C9.43303 10.5686 9.73905 10.535 9.89528 10.3666C10.0391 10.212 10.0345 9.92159 10.0345 9.92159C10.0345 9.92159 10.0147 8.56222 10.6456 8.36205C11.2675 8.16486 12.0662 9.67585 12.9127 10.2568C13.5528 10.6965 14.0392 10.6001 14.0392 10.6001L16.3026 10.5686C16.3026 10.5686 17.4866 10.4957 16.9252 9.56472C16.8792 9.48856 16.5982 8.87606 15.2423 7.61748C13.8231 6.30022 14.0132 6.51329 15.7227 4.23472C16.7639 2.84706 17.1801 1.99987 17.0501 1.63702C16.9261 1.29143 16.1604 1.38277 16.1604 1.38277L13.6119 1.39865C13.6119 1.39865 13.423 1.37288 13.2829 1.45663C13.146 1.53877 13.0578 1.73021 13.0578 1.73021C13.0578 1.73021 12.6545 2.80403 12.1166 3.71725C10.9818 5.64424 10.528 5.74594 10.3426 5.62629C9.91116 5.34743 10.0188 4.50599 10.0188 3.90822C10.0188 2.04083 10.3021 1.26221 9.46732 1.06065C9.19029 0.993693 8.98643 0.949516 8.27799 0.942383C7.36868 0.93295 6.59903 0.945144 6.16324 1.15867C5.87333 1.30063 5.64969 1.617 5.7859 1.63518C5.95432 1.65773 6.33581 1.73803 6.53806 2.01345C6.79921 2.3687 6.79001 3.16665 6.79001 3.16665C6.79001 3.16665 6.94002 5.36491 6.43958 5.63803C6.09606 5.82532 5.62484 5.44291 4.61314 3.6947C4.09475 2.7992 3.70337 1.80936 3.70337 1.80936C3.70337 1.80936 3.6279 1.62437 3.4933 1.52543C3.32993 1.40555 3.10169 1.36736 3.10169 1.36736L0.680006 1.38323C0.680006 1.38323 0.316466 1.39336 0.183014 1.55143C0.0642888 1.69201 0.173581 1.98284 0.173581 1.98284C0.173581 1.98284 2.06951 6.41849 4.21624 8.6538C6.18464 10.7032 8.41995 10.5686 8.41995 10.5686Z" fill="white"/>
</svg>
